%TF.GenerationSoftware,KiCad,Pcbnew,(5.1.7)-1*%
%TF.CreationDate,2021-01-11T00:33:51-05:00*%
%TF.ProjectId,d1_mini_clock,64315f6d-696e-4695-9f63-6c6f636b2e6b,rev?*%
%TF.SameCoordinates,Original*%
%TF.FileFunction,Legend,Top*%
%TF.FilePolarity,Positive*%
%FSLAX46Y46*%
G04 Gerber Fmt 4.6, Leading zero omitted, Abs format (unit mm)*
G04 Created by KiCad (PCBNEW (5.1.7)-1) date 2021-01-11 00:33:51*
%MOMM*%
%LPD*%
G01*
G04 APERTURE LIST*
%ADD10C,0.300000*%
%ADD11C,0.150000*%
%ADD12C,0.120000*%
%ADD13O,2.200000X2.200000*%
G04 APERTURE END LIST*
D10*
X146828571Y-86778571D02*
X146328571Y-86064285D01*
X145971428Y-86778571D02*
X145971428Y-85278571D01*
X146542857Y-85278571D01*
X146685714Y-85350000D01*
X146757142Y-85421428D01*
X146828571Y-85564285D01*
X146828571Y-85778571D01*
X146757142Y-85921428D01*
X146685714Y-85992857D01*
X146542857Y-86064285D01*
X145971428Y-86064285D01*
X147400000Y-86707142D02*
X147542857Y-86778571D01*
X147828571Y-86778571D01*
X147971428Y-86707142D01*
X148042857Y-86564285D01*
X148042857Y-86492857D01*
X147971428Y-86350000D01*
X147828571Y-86278571D01*
X147614285Y-86278571D01*
X147471428Y-86207142D01*
X147400000Y-86064285D01*
X147400000Y-85992857D01*
X147471428Y-85850000D01*
X147614285Y-85778571D01*
X147828571Y-85778571D01*
X147971428Y-85850000D01*
X148471428Y-85778571D02*
X149042857Y-85778571D01*
X148685714Y-85278571D02*
X148685714Y-86564285D01*
X148757142Y-86707142D01*
X148900000Y-86778571D01*
X149042857Y-86778571D01*
X146728571Y-88950000D02*
X147442857Y-88950000D01*
X146585714Y-89378571D02*
X147085714Y-87878571D01*
X147585714Y-89378571D01*
X148371428Y-87878571D02*
X148514285Y-87878571D01*
X148657142Y-87950000D01*
X148728571Y-88021428D01*
X148800000Y-88164285D01*
X148871428Y-88450000D01*
X148871428Y-88807142D01*
X148800000Y-89092857D01*
X148728571Y-89235714D01*
X148657142Y-89307142D01*
X148514285Y-89378571D01*
X148371428Y-89378571D01*
X148228571Y-89307142D01*
X148157142Y-89235714D01*
X148085714Y-89092857D01*
X148014285Y-88807142D01*
X148014285Y-88450000D01*
X148085714Y-88164285D01*
X148157142Y-88021428D01*
X148228571Y-87950000D01*
X148371428Y-87878571D01*
X146692857Y-91978571D02*
X146692857Y-90478571D01*
X147050000Y-90478571D01*
X147264285Y-90550000D01*
X147407142Y-90692857D01*
X147478571Y-90835714D01*
X147550000Y-91121428D01*
X147550000Y-91335714D01*
X147478571Y-91621428D01*
X147407142Y-91764285D01*
X147264285Y-91907142D01*
X147050000Y-91978571D01*
X146692857Y-91978571D01*
X148478571Y-90478571D02*
X148621428Y-90478571D01*
X148764285Y-90550000D01*
X148835714Y-90621428D01*
X148907142Y-90764285D01*
X148978571Y-91050000D01*
X148978571Y-91407142D01*
X148907142Y-91692857D01*
X148835714Y-91835714D01*
X148764285Y-91907142D01*
X148621428Y-91978571D01*
X148478571Y-91978571D01*
X148335714Y-91907142D01*
X148264285Y-91835714D01*
X148192857Y-91692857D01*
X148121428Y-91407142D01*
X148121428Y-91050000D01*
X148192857Y-90764285D01*
X148264285Y-90621428D01*
X148335714Y-90550000D01*
X148478571Y-90478571D01*
X146692857Y-94578571D02*
X146692857Y-93078571D01*
X147050000Y-93078571D01*
X147264285Y-93150000D01*
X147407142Y-93292857D01*
X147478571Y-93435714D01*
X147550000Y-93721428D01*
X147550000Y-93935714D01*
X147478571Y-94221428D01*
X147407142Y-94364285D01*
X147264285Y-94507142D01*
X147050000Y-94578571D01*
X146692857Y-94578571D01*
X148907142Y-93078571D02*
X148192857Y-93078571D01*
X148121428Y-93792857D01*
X148192857Y-93721428D01*
X148335714Y-93650000D01*
X148692857Y-93650000D01*
X148835714Y-93721428D01*
X148907142Y-93792857D01*
X148978571Y-93935714D01*
X148978571Y-94292857D01*
X148907142Y-94435714D01*
X148835714Y-94507142D01*
X148692857Y-94578571D01*
X148335714Y-94578571D01*
X148192857Y-94507142D01*
X148121428Y-94435714D01*
X146692857Y-97078571D02*
X146692857Y-95578571D01*
X147050000Y-95578571D01*
X147264285Y-95650000D01*
X147407142Y-95792857D01*
X147478571Y-95935714D01*
X147550000Y-96221428D01*
X147550000Y-96435714D01*
X147478571Y-96721428D01*
X147407142Y-96864285D01*
X147264285Y-97007142D01*
X147050000Y-97078571D01*
X146692857Y-97078571D01*
X148835714Y-95578571D02*
X148550000Y-95578571D01*
X148407142Y-95650000D01*
X148335714Y-95721428D01*
X148192857Y-95935714D01*
X148121428Y-96221428D01*
X148121428Y-96792857D01*
X148192857Y-96935714D01*
X148264285Y-97007142D01*
X148407142Y-97078571D01*
X148692857Y-97078571D01*
X148835714Y-97007142D01*
X148907142Y-96935714D01*
X148978571Y-96792857D01*
X148978571Y-96435714D01*
X148907142Y-96292857D01*
X148835714Y-96221428D01*
X148692857Y-96150000D01*
X148407142Y-96150000D01*
X148264285Y-96221428D01*
X148192857Y-96292857D01*
X148121428Y-96435714D01*
X146692857Y-99478571D02*
X146692857Y-97978571D01*
X147050000Y-97978571D01*
X147264285Y-98050000D01*
X147407142Y-98192857D01*
X147478571Y-98335714D01*
X147550000Y-98621428D01*
X147550000Y-98835714D01*
X147478571Y-99121428D01*
X147407142Y-99264285D01*
X147264285Y-99407142D01*
X147050000Y-99478571D01*
X146692857Y-99478571D01*
X148050000Y-97978571D02*
X149050000Y-97978571D01*
X148407142Y-99478571D01*
X146692857Y-102078571D02*
X146692857Y-100578571D01*
X147050000Y-100578571D01*
X147264285Y-100650000D01*
X147407142Y-100792857D01*
X147478571Y-100935714D01*
X147550000Y-101221428D01*
X147550000Y-101435714D01*
X147478571Y-101721428D01*
X147407142Y-101864285D01*
X147264285Y-102007142D01*
X147050000Y-102078571D01*
X146692857Y-102078571D01*
X148407142Y-101221428D02*
X148264285Y-101150000D01*
X148192857Y-101078571D01*
X148121428Y-100935714D01*
X148121428Y-100864285D01*
X148192857Y-100721428D01*
X148264285Y-100650000D01*
X148407142Y-100578571D01*
X148692857Y-100578571D01*
X148835714Y-100650000D01*
X148907142Y-100721428D01*
X148978571Y-100864285D01*
X148978571Y-100935714D01*
X148907142Y-101078571D01*
X148835714Y-101150000D01*
X148692857Y-101221428D01*
X148407142Y-101221428D01*
X148264285Y-101292857D01*
X148192857Y-101364285D01*
X148121428Y-101507142D01*
X148121428Y-101792857D01*
X148192857Y-101935714D01*
X148264285Y-102007142D01*
X148407142Y-102078571D01*
X148692857Y-102078571D01*
X148835714Y-102007142D01*
X148907142Y-101935714D01*
X148978571Y-101792857D01*
X148978571Y-101507142D01*
X148907142Y-101364285D01*
X148835714Y-101292857D01*
X148692857Y-101221428D01*
X145242857Y-103078571D02*
X146171428Y-103078571D01*
X145671428Y-103650000D01*
X145885714Y-103650000D01*
X146028571Y-103721428D01*
X146100000Y-103792857D01*
X146171428Y-103935714D01*
X146171428Y-104292857D01*
X146100000Y-104435714D01*
X146028571Y-104507142D01*
X145885714Y-104578571D01*
X145457142Y-104578571D01*
X145314285Y-104507142D01*
X145242857Y-104435714D01*
X146600000Y-103078571D02*
X147100000Y-104578571D01*
X147600000Y-103078571D01*
X147957142Y-103078571D02*
X148885714Y-103078571D01*
X148385714Y-103650000D01*
X148600000Y-103650000D01*
X148742857Y-103721428D01*
X148814285Y-103792857D01*
X148885714Y-103935714D01*
X148885714Y-104292857D01*
X148814285Y-104435714D01*
X148742857Y-104507142D01*
X148600000Y-104578571D01*
X148171428Y-104578571D01*
X148028571Y-104507142D01*
X147957142Y-104435714D01*
X128657142Y-85378571D02*
X129514285Y-85378571D01*
X129085714Y-86878571D02*
X129085714Y-85378571D01*
X129871428Y-85378571D02*
X130871428Y-86878571D01*
X130871428Y-85378571D02*
X129871428Y-86878571D01*
X129750000Y-89478571D02*
X129250000Y-88764285D01*
X128892857Y-89478571D02*
X128892857Y-87978571D01*
X129464285Y-87978571D01*
X129607142Y-88050000D01*
X129678571Y-88121428D01*
X129750000Y-88264285D01*
X129750000Y-88478571D01*
X129678571Y-88621428D01*
X129607142Y-88692857D01*
X129464285Y-88764285D01*
X128892857Y-88764285D01*
X130250000Y-87978571D02*
X131250000Y-89478571D01*
X131250000Y-87978571D02*
X130250000Y-89478571D01*
X128892857Y-91878571D02*
X128892857Y-90378571D01*
X129250000Y-90378571D01*
X129464285Y-90450000D01*
X129607142Y-90592857D01*
X129678571Y-90735714D01*
X129750000Y-91021428D01*
X129750000Y-91235714D01*
X129678571Y-91521428D01*
X129607142Y-91664285D01*
X129464285Y-91807142D01*
X129250000Y-91878571D01*
X128892857Y-91878571D01*
X131178571Y-91878571D02*
X130321428Y-91878571D01*
X130750000Y-91878571D02*
X130750000Y-90378571D01*
X130607142Y-90592857D01*
X130464285Y-90735714D01*
X130321428Y-90807142D01*
X128892857Y-94478571D02*
X128892857Y-92978571D01*
X129250000Y-92978571D01*
X129464285Y-93050000D01*
X129607142Y-93192857D01*
X129678571Y-93335714D01*
X129750000Y-93621428D01*
X129750000Y-93835714D01*
X129678571Y-94121428D01*
X129607142Y-94264285D01*
X129464285Y-94407142D01*
X129250000Y-94478571D01*
X128892857Y-94478571D01*
X130321428Y-93121428D02*
X130392857Y-93050000D01*
X130535714Y-92978571D01*
X130892857Y-92978571D01*
X131035714Y-93050000D01*
X131107142Y-93121428D01*
X131178571Y-93264285D01*
X131178571Y-93407142D01*
X131107142Y-93621428D01*
X130250000Y-94478571D01*
X131178571Y-94478571D01*
X128892857Y-97078571D02*
X128892857Y-95578571D01*
X129250000Y-95578571D01*
X129464285Y-95650000D01*
X129607142Y-95792857D01*
X129678571Y-95935714D01*
X129750000Y-96221428D01*
X129750000Y-96435714D01*
X129678571Y-96721428D01*
X129607142Y-96864285D01*
X129464285Y-97007142D01*
X129250000Y-97078571D01*
X128892857Y-97078571D01*
X130250000Y-95578571D02*
X131178571Y-95578571D01*
X130678571Y-96150000D01*
X130892857Y-96150000D01*
X131035714Y-96221428D01*
X131107142Y-96292857D01*
X131178571Y-96435714D01*
X131178571Y-96792857D01*
X131107142Y-96935714D01*
X131035714Y-97007142D01*
X130892857Y-97078571D01*
X130464285Y-97078571D01*
X130321428Y-97007142D01*
X130250000Y-96935714D01*
X128892857Y-99678571D02*
X128892857Y-98178571D01*
X129250000Y-98178571D01*
X129464285Y-98250000D01*
X129607142Y-98392857D01*
X129678571Y-98535714D01*
X129750000Y-98821428D01*
X129750000Y-99035714D01*
X129678571Y-99321428D01*
X129607142Y-99464285D01*
X129464285Y-99607142D01*
X129250000Y-99678571D01*
X128892857Y-99678571D01*
X131035714Y-98678571D02*
X131035714Y-99678571D01*
X130678571Y-98107142D02*
X130321428Y-99178571D01*
X131250000Y-99178571D01*
X129792857Y-100750000D02*
X129650000Y-100678571D01*
X129435714Y-100678571D01*
X129221428Y-100750000D01*
X129078571Y-100892857D01*
X129007142Y-101035714D01*
X128935714Y-101321428D01*
X128935714Y-101535714D01*
X129007142Y-101821428D01*
X129078571Y-101964285D01*
X129221428Y-102107142D01*
X129435714Y-102178571D01*
X129578571Y-102178571D01*
X129792857Y-102107142D01*
X129864285Y-102035714D01*
X129864285Y-101535714D01*
X129578571Y-101535714D01*
X129614285Y-103178571D02*
X128900000Y-103178571D01*
X128828571Y-103892857D01*
X128900000Y-103821428D01*
X129042857Y-103750000D01*
X129400000Y-103750000D01*
X129542857Y-103821428D01*
X129614285Y-103892857D01*
X129685714Y-104035714D01*
X129685714Y-104392857D01*
X129614285Y-104535714D01*
X129542857Y-104607142D01*
X129400000Y-104678571D01*
X129042857Y-104678571D01*
X128900000Y-104607142D01*
X128828571Y-104535714D01*
X130114285Y-103178571D02*
X130614285Y-104678571D01*
X131114285Y-103178571D01*
D11*
%TO.C,*%
X147543520Y-82560160D02*
X147942300Y-83560920D01*
X146842480Y-82560160D02*
X146491960Y-83560920D01*
X146491960Y-82362040D02*
X146842480Y-82560160D01*
X146243040Y-82059780D02*
X146491960Y-82362040D01*
X146192240Y-81561940D02*
X146243040Y-82059780D01*
X146342100Y-81109820D02*
X146192240Y-81561940D01*
X146743420Y-80761840D02*
X146342100Y-81109820D01*
X147142200Y-80660240D02*
X146743420Y-80761840D01*
X147591780Y-80711040D02*
X147142200Y-80660240D01*
X148043900Y-81061560D02*
X147591780Y-80711040D01*
X148193760Y-81412080D02*
X148043900Y-81061560D01*
X148193760Y-81810860D02*
X148193760Y-81412080D01*
X148043900Y-82212180D02*
X148193760Y-81810860D01*
X147843240Y-82410300D02*
X148043900Y-82212180D01*
X147543520Y-82560160D02*
X147843240Y-82410300D01*
X145262600Y-82181700D02*
X145402300Y-82580480D01*
X144703800Y-81981040D02*
X145262600Y-82181700D01*
X144713960Y-81280000D02*
X144703800Y-81981040D01*
X145262600Y-81180940D02*
X144713960Y-81280000D01*
X145432780Y-80700880D02*
X145262600Y-81180940D01*
X145183860Y-80159860D02*
X145432780Y-80700880D01*
X145702020Y-79631540D02*
X145183860Y-80159860D01*
X146253200Y-79900780D02*
X145702020Y-79631540D01*
X146672300Y-79730600D02*
X146253200Y-79900780D01*
X146883120Y-79181960D02*
X146672300Y-79730600D01*
X147574000Y-79199740D02*
X146883120Y-79181960D01*
X147744180Y-79740760D02*
X147574000Y-79199740D01*
X148214080Y-79941420D02*
X147744180Y-79740760D01*
X148732240Y-79679800D02*
X148214080Y-79941420D01*
X149202140Y-80190340D02*
X148732240Y-79679800D01*
X148932900Y-80660240D02*
X149202140Y-80190340D01*
X149133560Y-81231740D02*
X148932900Y-80660240D01*
X149692360Y-81371440D02*
X149133560Y-81231740D01*
X149692360Y-82052160D02*
X149692360Y-81371440D01*
X149082760Y-82240120D02*
X149692360Y-82052160D01*
X148892260Y-82710020D02*
X149082760Y-82240120D01*
X149174200Y-83190080D02*
X148892260Y-82710020D01*
X148701760Y-83680300D02*
X149174200Y-83190080D01*
X148262340Y-83350100D02*
X148701760Y-83680300D01*
X147932140Y-83540600D02*
X148262340Y-83350100D01*
X146212560Y-83400900D02*
X146491960Y-83560920D01*
X145691860Y-83670140D02*
X146212560Y-83400900D01*
X145153380Y-83151980D02*
X145691860Y-83670140D01*
X145412460Y-82590640D02*
X145153380Y-83151980D01*
D12*
%TO.C,BT1*%
X144938000Y-106996000D02*
X144938000Y-108996000D01*
X143938000Y-107996000D02*
X145938000Y-107996000D01*
X130588000Y-83646000D02*
X135088000Y-83646000D01*
X130588000Y-106346000D02*
X135088000Y-106346000D01*
X130588000Y-106346000D02*
X130588000Y-83646000D01*
X135088000Y-80446000D02*
X136638000Y-80446000D01*
X135088000Y-83646000D02*
X135088000Y-80446000D01*
X135088000Y-109546000D02*
X136638000Y-109546000D01*
X135088000Y-106346000D02*
X135088000Y-109546000D01*
X142788000Y-109546000D02*
X141238000Y-109546000D01*
X142788000Y-106346000D02*
X142788000Y-109546000D01*
X147288000Y-104546000D02*
X145488000Y-106346000D01*
X145488000Y-106346000D02*
X142788000Y-106346000D01*
X147288000Y-83646000D02*
X147288000Y-104546000D01*
X147288000Y-83646000D02*
X142788000Y-83646000D01*
X142788000Y-80446000D02*
X141238000Y-80446000D01*
X142788000Y-83646000D02*
X142788000Y-80446000D01*
%TO.C,P1*%
D11*
X126861904Y-106852380D02*
X126861904Y-105852380D01*
X127242857Y-105852380D01*
X127338095Y-105900000D01*
X127385714Y-105947619D01*
X127433333Y-106042857D01*
X127433333Y-106185714D01*
X127385714Y-106280952D01*
X127338095Y-106328571D01*
X127242857Y-106376190D01*
X126861904Y-106376190D01*
X128385714Y-106852380D02*
X127814285Y-106852380D01*
X128100000Y-106852380D02*
X128100000Y-105852380D01*
X128004761Y-105995238D01*
X127909523Y-106090476D01*
X127814285Y-106138095D01*
%TO.C,P2*%
X149561904Y-84252380D02*
X149561904Y-83252380D01*
X149942857Y-83252380D01*
X150038095Y-83300000D01*
X150085714Y-83347619D01*
X150133333Y-83442857D01*
X150133333Y-83585714D01*
X150085714Y-83680952D01*
X150038095Y-83728571D01*
X149942857Y-83776190D01*
X149561904Y-83776190D01*
X150514285Y-83347619D02*
X150561904Y-83300000D01*
X150657142Y-83252380D01*
X150895238Y-83252380D01*
X150990476Y-83300000D01*
X151038095Y-83347619D01*
X151085714Y-83442857D01*
X151085714Y-83538095D01*
X151038095Y-83680952D01*
X150466666Y-84252380D01*
X151085714Y-84252380D01*
%TO.C,BT1*%
X133566571Y-109906714D02*
X133614190Y-109763857D01*
X133661809Y-109716238D01*
X133757047Y-109668619D01*
X133899904Y-109668619D01*
X133995142Y-109716238D01*
X134042761Y-109763857D01*
X134090380Y-109859095D01*
X134090380Y-110240047D01*
X133090380Y-110240047D01*
X133090380Y-109906714D01*
X133138000Y-109811476D01*
X133185619Y-109763857D01*
X133280857Y-109716238D01*
X133376095Y-109716238D01*
X133471333Y-109763857D01*
X133518952Y-109811476D01*
X133566571Y-109906714D01*
X133566571Y-110240047D01*
X133090380Y-109382904D02*
X133090380Y-108811476D01*
X134090380Y-109097190D02*
X133090380Y-109097190D01*
X134090380Y-107954333D02*
X134090380Y-108525761D01*
X134090380Y-108240047D02*
X133090380Y-108240047D01*
X133233238Y-108335285D01*
X133328476Y-108430523D01*
X133376095Y-108525761D01*
%TD*%
%LPC*%
%TO.C,P1*%
G36*
G01*
X128590000Y-103050000D02*
X128590000Y-104850000D01*
G75*
G02*
X128390000Y-105050000I-200000J0D01*
G01*
X126590000Y-105050000D01*
G75*
G02*
X126390000Y-104850000I0J200000D01*
G01*
X126390000Y-103050000D01*
G75*
G02*
X126590000Y-102850000I200000J0D01*
G01*
X128390000Y-102850000D01*
G75*
G02*
X128590000Y-103050000I0J-200000D01*
G01*
G37*
D13*
X127490000Y-101410000D03*
X127490000Y-98870000D03*
X127490000Y-96330000D03*
X127490000Y-93790000D03*
X127490000Y-91250000D03*
X127490000Y-88710000D03*
X127490000Y-86170000D03*
%TD*%
%TO.C,P2*%
G36*
G01*
X151450000Y-103050000D02*
X151450000Y-104850000D01*
G75*
G02*
X151250000Y-105050000I-200000J0D01*
G01*
X149450000Y-105050000D01*
G75*
G02*
X149250000Y-104850000I0J200000D01*
G01*
X149250000Y-103050000D01*
G75*
G02*
X149450000Y-102850000I200000J0D01*
G01*
X151250000Y-102850000D01*
G75*
G02*
X151450000Y-103050000I0J-200000D01*
G01*
G37*
X150350000Y-101410000D03*
X150350000Y-98870000D03*
X150350000Y-96330000D03*
X150350000Y-93790000D03*
X150350000Y-91250000D03*
X150350000Y-88710000D03*
X150350000Y-86170000D03*
%TD*%
%TO.C,BT1*%
G36*
G01*
X137138000Y-78846000D02*
X140738000Y-78846000D01*
G75*
G02*
X140938000Y-79046000I0J-200000D01*
G01*
X140938000Y-81646000D01*
G75*
G02*
X140738000Y-81846000I-200000J0D01*
G01*
X137138000Y-81846000D01*
G75*
G02*
X136938000Y-81646000I0J200000D01*
G01*
X136938000Y-79046000D01*
G75*
G02*
X137138000Y-78846000I200000J0D01*
G01*
G37*
G36*
G01*
X137138000Y-108146000D02*
X140738000Y-108146000D01*
G75*
G02*
X140938000Y-108346000I0J-200000D01*
G01*
X140938000Y-110946000D01*
G75*
G02*
X140738000Y-111146000I-200000J0D01*
G01*
X137138000Y-111146000D01*
G75*
G02*
X136938000Y-110946000I0J200000D01*
G01*
X136938000Y-108346000D01*
G75*
G02*
X137138000Y-108146000I200000J0D01*
G01*
G37*
%TD*%
M02*
