M48
INCH,TZ
T1C0.0157
T2C0.0400
%
G90
G05
T1
X51950Y-40200
X53300Y-35600
X53300Y-36300
X53874Y-35276
X54000Y-36600
X54000Y-37300
X54350Y-34000
X54700Y-32650
X54700Y-40450
X56250Y-33600
X56550Y-35350
X57000Y-36900
X57050Y-35350
X57450Y-38400
X57450Y-40200
T2
X59193Y-33925
X59193Y-34925
X59193Y-35925
X59193Y-36925
X59193Y-37925
X59193Y-38925
X59193Y-39925
X59193Y-40925
X50193Y-33925
X50193Y-34925
X50193Y-35925
X50193Y-36925
X50193Y-37925
X50193Y-38925
X50193Y-39925
X50193Y-40925
T0
M30
