%TF.GenerationSoftware,KiCad,Pcbnew,(5.1.7)-1*%
%TF.CreationDate,2021-01-11T00:33:51-05:00*%
%TF.ProjectId,d1_mini_clock,64315f6d-696e-4695-9f63-6c6f636b2e6b,rev?*%
%TF.SameCoordinates,Original*%
%TF.FileFunction,Paste,Bot*%
%TF.FilePolarity,Positive*%
%FSLAX46Y46*%
G04 Gerber Fmt 4.6, Leading zero omitted, Abs format (unit mm)*
G04 Created by KiCad (PCBNEW (5.1.7)-1) date 2021-01-11 00:33:51*
%MOMM*%
%LPD*%
G01*
G04 APERTURE LIST*
%ADD10R,0.400000X0.650000*%
G04 APERTURE END LIST*
%TO.C,J2*%
G36*
G01*
X132247000Y-87916000D02*
X132247000Y-84916000D01*
G75*
G02*
X132497000Y-84666000I250000J0D01*
G01*
X132997000Y-84666000D01*
G75*
G02*
X133247000Y-84916000I0J-250000D01*
G01*
X133247000Y-87916000D01*
G75*
G02*
X132997000Y-88166000I-250000J0D01*
G01*
X132497000Y-88166000D01*
G75*
G02*
X132247000Y-87916000I0J250000D01*
G01*
G37*
G36*
G01*
X134247000Y-87916000D02*
X134247000Y-84916000D01*
G75*
G02*
X134497000Y-84666000I250000J0D01*
G01*
X134997000Y-84666000D01*
G75*
G02*
X135247000Y-84916000I0J-250000D01*
G01*
X135247000Y-87916000D01*
G75*
G02*
X134997000Y-88166000I-250000J0D01*
G01*
X134497000Y-88166000D01*
G75*
G02*
X134247000Y-87916000I0J250000D01*
G01*
G37*
G36*
G01*
X136247000Y-87916000D02*
X136247000Y-84916000D01*
G75*
G02*
X136497000Y-84666000I250000J0D01*
G01*
X136997000Y-84666000D01*
G75*
G02*
X137247000Y-84916000I0J-250000D01*
G01*
X137247000Y-87916000D01*
G75*
G02*
X136997000Y-88166000I-250000J0D01*
G01*
X136497000Y-88166000D01*
G75*
G02*
X136247000Y-87916000I0J250000D01*
G01*
G37*
G36*
G01*
X129647000Y-82116000D02*
X129647000Y-79216000D01*
G75*
G02*
X129897000Y-78966000I250000J0D01*
G01*
X130897000Y-78966000D01*
G75*
G02*
X131147000Y-79216000I0J-250000D01*
G01*
X131147000Y-82116000D01*
G75*
G02*
X130897000Y-82366000I-250000J0D01*
G01*
X129897000Y-82366000D01*
G75*
G02*
X129647000Y-82116000I0J250000D01*
G01*
G37*
G36*
G01*
X138347000Y-82116000D02*
X138347000Y-79216000D01*
G75*
G02*
X138597000Y-78966000I250000J0D01*
G01*
X139597000Y-78966000D01*
G75*
G02*
X139847000Y-79216000I0J-250000D01*
G01*
X139847000Y-82116000D01*
G75*
G02*
X139597000Y-82366000I-250000J0D01*
G01*
X138597000Y-82366000D01*
G75*
G02*
X138347000Y-82116000I0J250000D01*
G01*
G37*
%TD*%
%TO.C,C1*%
G36*
G01*
X145673000Y-100528000D02*
X146173000Y-100528000D01*
G75*
G02*
X146398000Y-100753000I0J-225000D01*
G01*
X146398000Y-101203000D01*
G75*
G02*
X146173000Y-101428000I-225000J0D01*
G01*
X145673000Y-101428000D01*
G75*
G02*
X145448000Y-101203000I0J225000D01*
G01*
X145448000Y-100753000D01*
G75*
G02*
X145673000Y-100528000I225000J0D01*
G01*
G37*
G36*
G01*
X145673000Y-98978000D02*
X146173000Y-98978000D01*
G75*
G02*
X146398000Y-99203000I0J-225000D01*
G01*
X146398000Y-99653000D01*
G75*
G02*
X146173000Y-99878000I-225000J0D01*
G01*
X145673000Y-99878000D01*
G75*
G02*
X145448000Y-99653000I0J225000D01*
G01*
X145448000Y-99203000D01*
G75*
G02*
X145673000Y-98978000I225000J0D01*
G01*
G37*
%TD*%
%TO.C,C2*%
G36*
G01*
X131703000Y-98978000D02*
X132203000Y-98978000D01*
G75*
G02*
X132428000Y-99203000I0J-225000D01*
G01*
X132428000Y-99653000D01*
G75*
G02*
X132203000Y-99878000I-225000J0D01*
G01*
X131703000Y-99878000D01*
G75*
G02*
X131478000Y-99653000I0J225000D01*
G01*
X131478000Y-99203000D01*
G75*
G02*
X131703000Y-98978000I225000J0D01*
G01*
G37*
G36*
G01*
X131703000Y-100528000D02*
X132203000Y-100528000D01*
G75*
G02*
X132428000Y-100753000I0J-225000D01*
G01*
X132428000Y-101203000D01*
G75*
G02*
X132203000Y-101428000I-225000J0D01*
G01*
X131703000Y-101428000D01*
G75*
G02*
X131478000Y-101203000I0J225000D01*
G01*
X131478000Y-100753000D01*
G75*
G02*
X131703000Y-100528000I225000J0D01*
G01*
G37*
%TD*%
%TO.C,C3*%
G36*
G01*
X137545000Y-89326000D02*
X138045000Y-89326000D01*
G75*
G02*
X138270000Y-89551000I0J-225000D01*
G01*
X138270000Y-90001000D01*
G75*
G02*
X138045000Y-90226000I-225000J0D01*
G01*
X137545000Y-90226000D01*
G75*
G02*
X137320000Y-90001000I0J225000D01*
G01*
X137320000Y-89551000D01*
G75*
G02*
X137545000Y-89326000I225000J0D01*
G01*
G37*
G36*
G01*
X137545000Y-90876000D02*
X138045000Y-90876000D01*
G75*
G02*
X138270000Y-91101000I0J-225000D01*
G01*
X138270000Y-91551000D01*
G75*
G02*
X138045000Y-91776000I-225000J0D01*
G01*
X137545000Y-91776000D01*
G75*
G02*
X137320000Y-91551000I0J225000D01*
G01*
X137320000Y-91101000D01*
G75*
G02*
X137545000Y-90876000I225000J0D01*
G01*
G37*
%TD*%
%TO.C,J1*%
G36*
G01*
X142599000Y-84413000D02*
X142599000Y-83163000D01*
G75*
G02*
X142749000Y-83013000I150000J0D01*
G01*
X143049000Y-83013000D01*
G75*
G02*
X143199000Y-83163000I0J-150000D01*
G01*
X143199000Y-84413000D01*
G75*
G02*
X143049000Y-84563000I-150000J0D01*
G01*
X142749000Y-84563000D01*
G75*
G02*
X142599000Y-84413000I0J150000D01*
G01*
G37*
G36*
G01*
X143599000Y-84413000D02*
X143599000Y-83163000D01*
G75*
G02*
X143749000Y-83013000I150000J0D01*
G01*
X144049000Y-83013000D01*
G75*
G02*
X144199000Y-83163000I0J-150000D01*
G01*
X144199000Y-84413000D01*
G75*
G02*
X144049000Y-84563000I-150000J0D01*
G01*
X143749000Y-84563000D01*
G75*
G02*
X143599000Y-84413000I0J150000D01*
G01*
G37*
G36*
G01*
X144599000Y-84413000D02*
X144599000Y-83163000D01*
G75*
G02*
X144749000Y-83013000I150000J0D01*
G01*
X145049000Y-83013000D01*
G75*
G02*
X145199000Y-83163000I0J-150000D01*
G01*
X145199000Y-84413000D01*
G75*
G02*
X145049000Y-84563000I-150000J0D01*
G01*
X144749000Y-84563000D01*
G75*
G02*
X144599000Y-84413000I0J150000D01*
G01*
G37*
G36*
G01*
X145599000Y-84413000D02*
X145599000Y-83163000D01*
G75*
G02*
X145749000Y-83013000I150000J0D01*
G01*
X146049000Y-83013000D01*
G75*
G02*
X146199000Y-83163000I0J-150000D01*
G01*
X146199000Y-84413000D01*
G75*
G02*
X146049000Y-84563000I-150000J0D01*
G01*
X145749000Y-84563000D01*
G75*
G02*
X145599000Y-84413000I0J150000D01*
G01*
G37*
G36*
G01*
X140999000Y-80563001D02*
X140999000Y-79262999D01*
G75*
G02*
X141248999Y-79013000I249999J0D01*
G01*
X141949001Y-79013000D01*
G75*
G02*
X142199000Y-79262999I0J-249999D01*
G01*
X142199000Y-80563001D01*
G75*
G02*
X141949001Y-80813000I-249999J0D01*
G01*
X141248999Y-80813000D01*
G75*
G02*
X140999000Y-80563001I0J249999D01*
G01*
G37*
G36*
G01*
X146599000Y-80563001D02*
X146599000Y-79262999D01*
G75*
G02*
X146848999Y-79013000I249999J0D01*
G01*
X147549001Y-79013000D01*
G75*
G02*
X147799000Y-79262999I0J-249999D01*
G01*
X147799000Y-80563001D01*
G75*
G02*
X147549001Y-80813000I-249999J0D01*
G01*
X146848999Y-80813000D01*
G75*
G02*
X146599000Y-80563001I0J249999D01*
G01*
G37*
%TD*%
%TO.C,U1*%
G36*
G01*
X144613000Y-96878000D02*
X144613000Y-97178000D01*
G75*
G02*
X144463000Y-97328000I-150000J0D01*
G01*
X142713000Y-97328000D01*
G75*
G02*
X142563000Y-97178000I0J150000D01*
G01*
X142563000Y-96878000D01*
G75*
G02*
X142713000Y-96728000I150000J0D01*
G01*
X144463000Y-96728000D01*
G75*
G02*
X144613000Y-96878000I0J-150000D01*
G01*
G37*
G36*
G01*
X144613000Y-98148000D02*
X144613000Y-98448000D01*
G75*
G02*
X144463000Y-98598000I-150000J0D01*
G01*
X142713000Y-98598000D01*
G75*
G02*
X142563000Y-98448000I0J150000D01*
G01*
X142563000Y-98148000D01*
G75*
G02*
X142713000Y-97998000I150000J0D01*
G01*
X144463000Y-97998000D01*
G75*
G02*
X144613000Y-98148000I0J-150000D01*
G01*
G37*
G36*
G01*
X144613000Y-99418000D02*
X144613000Y-99718000D01*
G75*
G02*
X144463000Y-99868000I-150000J0D01*
G01*
X142713000Y-99868000D01*
G75*
G02*
X142563000Y-99718000I0J150000D01*
G01*
X142563000Y-99418000D01*
G75*
G02*
X142713000Y-99268000I150000J0D01*
G01*
X144463000Y-99268000D01*
G75*
G02*
X144613000Y-99418000I0J-150000D01*
G01*
G37*
G36*
G01*
X144613000Y-100688000D02*
X144613000Y-100988000D01*
G75*
G02*
X144463000Y-101138000I-150000J0D01*
G01*
X142713000Y-101138000D01*
G75*
G02*
X142563000Y-100988000I0J150000D01*
G01*
X142563000Y-100688000D01*
G75*
G02*
X142713000Y-100538000I150000J0D01*
G01*
X144463000Y-100538000D01*
G75*
G02*
X144613000Y-100688000I0J-150000D01*
G01*
G37*
G36*
G01*
X144613000Y-101958000D02*
X144613000Y-102258000D01*
G75*
G02*
X144463000Y-102408000I-150000J0D01*
G01*
X142713000Y-102408000D01*
G75*
G02*
X142563000Y-102258000I0J150000D01*
G01*
X142563000Y-101958000D01*
G75*
G02*
X142713000Y-101808000I150000J0D01*
G01*
X144463000Y-101808000D01*
G75*
G02*
X144613000Y-101958000I0J-150000D01*
G01*
G37*
G36*
G01*
X144613000Y-103228000D02*
X144613000Y-103528000D01*
G75*
G02*
X144463000Y-103678000I-150000J0D01*
G01*
X142713000Y-103678000D01*
G75*
G02*
X142563000Y-103528000I0J150000D01*
G01*
X142563000Y-103228000D01*
G75*
G02*
X142713000Y-103078000I150000J0D01*
G01*
X144463000Y-103078000D01*
G75*
G02*
X144613000Y-103228000I0J-150000D01*
G01*
G37*
G36*
G01*
X144613000Y-104498000D02*
X144613000Y-104798000D01*
G75*
G02*
X144463000Y-104948000I-150000J0D01*
G01*
X142713000Y-104948000D01*
G75*
G02*
X142563000Y-104798000I0J150000D01*
G01*
X142563000Y-104498000D01*
G75*
G02*
X142713000Y-104348000I150000J0D01*
G01*
X144463000Y-104348000D01*
G75*
G02*
X144613000Y-104498000I0J-150000D01*
G01*
G37*
G36*
G01*
X144613000Y-105768000D02*
X144613000Y-106068000D01*
G75*
G02*
X144463000Y-106218000I-150000J0D01*
G01*
X142713000Y-106218000D01*
G75*
G02*
X142563000Y-106068000I0J150000D01*
G01*
X142563000Y-105768000D01*
G75*
G02*
X142713000Y-105618000I150000J0D01*
G01*
X144463000Y-105618000D01*
G75*
G02*
X144613000Y-105768000I0J-150000D01*
G01*
G37*
G36*
G01*
X135313000Y-105768000D02*
X135313000Y-106068000D01*
G75*
G02*
X135163000Y-106218000I-150000J0D01*
G01*
X133413000Y-106218000D01*
G75*
G02*
X133263000Y-106068000I0J150000D01*
G01*
X133263000Y-105768000D01*
G75*
G02*
X133413000Y-105618000I150000J0D01*
G01*
X135163000Y-105618000D01*
G75*
G02*
X135313000Y-105768000I0J-150000D01*
G01*
G37*
G36*
G01*
X135313000Y-104498000D02*
X135313000Y-104798000D01*
G75*
G02*
X135163000Y-104948000I-150000J0D01*
G01*
X133413000Y-104948000D01*
G75*
G02*
X133263000Y-104798000I0J150000D01*
G01*
X133263000Y-104498000D01*
G75*
G02*
X133413000Y-104348000I150000J0D01*
G01*
X135163000Y-104348000D01*
G75*
G02*
X135313000Y-104498000I0J-150000D01*
G01*
G37*
G36*
G01*
X135313000Y-103228000D02*
X135313000Y-103528000D01*
G75*
G02*
X135163000Y-103678000I-150000J0D01*
G01*
X133413000Y-103678000D01*
G75*
G02*
X133263000Y-103528000I0J150000D01*
G01*
X133263000Y-103228000D01*
G75*
G02*
X133413000Y-103078000I150000J0D01*
G01*
X135163000Y-103078000D01*
G75*
G02*
X135313000Y-103228000I0J-150000D01*
G01*
G37*
G36*
G01*
X135313000Y-101958000D02*
X135313000Y-102258000D01*
G75*
G02*
X135163000Y-102408000I-150000J0D01*
G01*
X133413000Y-102408000D01*
G75*
G02*
X133263000Y-102258000I0J150000D01*
G01*
X133263000Y-101958000D01*
G75*
G02*
X133413000Y-101808000I150000J0D01*
G01*
X135163000Y-101808000D01*
G75*
G02*
X135313000Y-101958000I0J-150000D01*
G01*
G37*
G36*
G01*
X135313000Y-100688000D02*
X135313000Y-100988000D01*
G75*
G02*
X135163000Y-101138000I-150000J0D01*
G01*
X133413000Y-101138000D01*
G75*
G02*
X133263000Y-100988000I0J150000D01*
G01*
X133263000Y-100688000D01*
G75*
G02*
X133413000Y-100538000I150000J0D01*
G01*
X135163000Y-100538000D01*
G75*
G02*
X135313000Y-100688000I0J-150000D01*
G01*
G37*
G36*
G01*
X135313000Y-99418000D02*
X135313000Y-99718000D01*
G75*
G02*
X135163000Y-99868000I-150000J0D01*
G01*
X133413000Y-99868000D01*
G75*
G02*
X133263000Y-99718000I0J150000D01*
G01*
X133263000Y-99418000D01*
G75*
G02*
X133413000Y-99268000I150000J0D01*
G01*
X135163000Y-99268000D01*
G75*
G02*
X135313000Y-99418000I0J-150000D01*
G01*
G37*
G36*
G01*
X135313000Y-98148000D02*
X135313000Y-98448000D01*
G75*
G02*
X135163000Y-98598000I-150000J0D01*
G01*
X133413000Y-98598000D01*
G75*
G02*
X133263000Y-98448000I0J150000D01*
G01*
X133263000Y-98148000D01*
G75*
G02*
X133413000Y-97998000I150000J0D01*
G01*
X135163000Y-97998000D01*
G75*
G02*
X135313000Y-98148000I0J-150000D01*
G01*
G37*
G36*
G01*
X135313000Y-96878000D02*
X135313000Y-97178000D01*
G75*
G02*
X135163000Y-97328000I-150000J0D01*
G01*
X133413000Y-97328000D01*
G75*
G02*
X133263000Y-97178000I0J150000D01*
G01*
X133263000Y-96878000D01*
G75*
G02*
X133413000Y-96728000I150000J0D01*
G01*
X135163000Y-96728000D01*
G75*
G02*
X135313000Y-96878000I0J-150000D01*
G01*
G37*
%TD*%
D10*
%TO.C,U2*%
X136032000Y-91501000D03*
X134732000Y-91501000D03*
X135382000Y-91501000D03*
X134732000Y-89601000D03*
X136032000Y-89601000D03*
%TD*%
%TO.C,R1*%
G36*
G01*
X132694000Y-89326000D02*
X133244000Y-89326000D01*
G75*
G02*
X133444000Y-89526000I0J-200000D01*
G01*
X133444000Y-89926000D01*
G75*
G02*
X133244000Y-90126000I-200000J0D01*
G01*
X132694000Y-90126000D01*
G75*
G02*
X132494000Y-89926000I0J200000D01*
G01*
X132494000Y-89526000D01*
G75*
G02*
X132694000Y-89326000I200000J0D01*
G01*
G37*
G36*
G01*
X132694000Y-90976000D02*
X133244000Y-90976000D01*
G75*
G02*
X133444000Y-91176000I0J-200000D01*
G01*
X133444000Y-91576000D01*
G75*
G02*
X133244000Y-91776000I-200000J0D01*
G01*
X132694000Y-91776000D01*
G75*
G02*
X132494000Y-91576000I0J200000D01*
G01*
X132494000Y-91176000D01*
G75*
G02*
X132694000Y-90976000I200000J0D01*
G01*
G37*
%TD*%
%TO.C,R2*%
G36*
G01*
X141626000Y-90126000D02*
X141076000Y-90126000D01*
G75*
G02*
X140876000Y-89926000I0J200000D01*
G01*
X140876000Y-89526000D01*
G75*
G02*
X141076000Y-89326000I200000J0D01*
G01*
X141626000Y-89326000D01*
G75*
G02*
X141826000Y-89526000I0J-200000D01*
G01*
X141826000Y-89926000D01*
G75*
G02*
X141626000Y-90126000I-200000J0D01*
G01*
G37*
G36*
G01*
X141626000Y-91776000D02*
X141076000Y-91776000D01*
G75*
G02*
X140876000Y-91576000I0J200000D01*
G01*
X140876000Y-91176000D01*
G75*
G02*
X141076000Y-90976000I200000J0D01*
G01*
X141626000Y-90976000D01*
G75*
G02*
X141826000Y-91176000I0J-200000D01*
G01*
X141826000Y-91576000D01*
G75*
G02*
X141626000Y-91776000I-200000J0D01*
G01*
G37*
%TD*%
%TO.C,R3*%
G36*
G01*
X139848000Y-91776000D02*
X139298000Y-91776000D01*
G75*
G02*
X139098000Y-91576000I0J200000D01*
G01*
X139098000Y-91176000D01*
G75*
G02*
X139298000Y-90976000I200000J0D01*
G01*
X139848000Y-90976000D01*
G75*
G02*
X140048000Y-91176000I0J-200000D01*
G01*
X140048000Y-91576000D01*
G75*
G02*
X139848000Y-91776000I-200000J0D01*
G01*
G37*
G36*
G01*
X139848000Y-90126000D02*
X139298000Y-90126000D01*
G75*
G02*
X139098000Y-89926000I0J200000D01*
G01*
X139098000Y-89526000D01*
G75*
G02*
X139298000Y-89326000I200000J0D01*
G01*
X139848000Y-89326000D01*
G75*
G02*
X140048000Y-89526000I0J-200000D01*
G01*
X140048000Y-89926000D01*
G75*
G02*
X139848000Y-90126000I-200000J0D01*
G01*
G37*
%TD*%
M02*
