%TF.GenerationSoftware,KiCad,Pcbnew,(5.1.7)-1*%
%TF.CreationDate,2021-01-11T01:01:30-05:00*%
%TF.ProjectId,d1_mini_clock,64315f6d-696e-4695-9f63-6c6f636b2e6b,rev?*%
%TF.SameCoordinates,Original*%
%TF.FileFunction,Soldermask,Bot*%
%TF.FilePolarity,Negative*%
%FSLAX46Y46*%
G04 Gerber Fmt 4.6, Leading zero omitted, Abs format (unit mm)*
G04 Created by KiCad (PCBNEW (5.1.7)-1) date 2021-01-11 01:01:30*
%MOMM*%
%LPD*%
G01*
G04 APERTURE LIST*
%ADD10O,2.200000X2.200000*%
G04 APERTURE END LIST*
%TO.C,J2*%
G36*
G01*
X132047000Y-88016000D02*
X132047000Y-84816000D01*
G75*
G02*
X132397000Y-84466000I350000J0D01*
G01*
X133097000Y-84466000D01*
G75*
G02*
X133447000Y-84816000I0J-350000D01*
G01*
X133447000Y-88016000D01*
G75*
G02*
X133097000Y-88366000I-350000J0D01*
G01*
X132397000Y-88366000D01*
G75*
G02*
X132047000Y-88016000I0J350000D01*
G01*
G37*
G36*
G01*
X134047000Y-88016000D02*
X134047000Y-84816000D01*
G75*
G02*
X134397000Y-84466000I350000J0D01*
G01*
X135097000Y-84466000D01*
G75*
G02*
X135447000Y-84816000I0J-350000D01*
G01*
X135447000Y-88016000D01*
G75*
G02*
X135097000Y-88366000I-350000J0D01*
G01*
X134397000Y-88366000D01*
G75*
G02*
X134047000Y-88016000I0J350000D01*
G01*
G37*
G36*
G01*
X136047000Y-88016000D02*
X136047000Y-84816000D01*
G75*
G02*
X136397000Y-84466000I350000J0D01*
G01*
X137097000Y-84466000D01*
G75*
G02*
X137447000Y-84816000I0J-350000D01*
G01*
X137447000Y-88016000D01*
G75*
G02*
X137097000Y-88366000I-350000J0D01*
G01*
X136397000Y-88366000D01*
G75*
G02*
X136047000Y-88016000I0J350000D01*
G01*
G37*
G36*
G01*
X129447000Y-82249334D02*
X129447000Y-79082666D01*
G75*
G02*
X129763666Y-78766000I316666J0D01*
G01*
X131030334Y-78766000D01*
G75*
G02*
X131347000Y-79082666I0J-316666D01*
G01*
X131347000Y-82249334D01*
G75*
G02*
X131030334Y-82566000I-316666J0D01*
G01*
X129763666Y-82566000D01*
G75*
G02*
X129447000Y-82249334I0J316666D01*
G01*
G37*
G36*
G01*
X138147000Y-82249334D02*
X138147000Y-79082666D01*
G75*
G02*
X138463666Y-78766000I316666J0D01*
G01*
X139730334Y-78766000D01*
G75*
G02*
X140047000Y-79082666I0J-316666D01*
G01*
X140047000Y-82249334D01*
G75*
G02*
X139730334Y-82566000I-316666J0D01*
G01*
X138463666Y-82566000D01*
G75*
G02*
X138147000Y-82249334I0J316666D01*
G01*
G37*
%TD*%
%TO.C,P1*%
G36*
G01*
X128590000Y-103050000D02*
X128590000Y-104850000D01*
G75*
G02*
X128390000Y-105050000I-200000J0D01*
G01*
X126590000Y-105050000D01*
G75*
G02*
X126390000Y-104850000I0J200000D01*
G01*
X126390000Y-103050000D01*
G75*
G02*
X126590000Y-102850000I200000J0D01*
G01*
X128390000Y-102850000D01*
G75*
G02*
X128590000Y-103050000I0J-200000D01*
G01*
G37*
D10*
X127490000Y-101410000D03*
X127490000Y-98870000D03*
X127490000Y-96330000D03*
X127490000Y-93790000D03*
X127490000Y-91250000D03*
X127490000Y-88710000D03*
X127490000Y-86170000D03*
%TD*%
%TO.C,P2*%
G36*
G01*
X151450000Y-103050000D02*
X151450000Y-104850000D01*
G75*
G02*
X151250000Y-105050000I-200000J0D01*
G01*
X149450000Y-105050000D01*
G75*
G02*
X149250000Y-104850000I0J200000D01*
G01*
X149250000Y-103050000D01*
G75*
G02*
X149450000Y-102850000I200000J0D01*
G01*
X151250000Y-102850000D01*
G75*
G02*
X151450000Y-103050000I0J-200000D01*
G01*
G37*
X150350000Y-101410000D03*
X150350000Y-98870000D03*
X150350000Y-96330000D03*
X150350000Y-93790000D03*
X150350000Y-91250000D03*
X150350000Y-88710000D03*
X150350000Y-86170000D03*
%TD*%
%TO.C,C1*%
G36*
G01*
X145573000Y-100328000D02*
X146273000Y-100328000D01*
G75*
G02*
X146598000Y-100653000I0J-325000D01*
G01*
X146598000Y-101303000D01*
G75*
G02*
X146273000Y-101628000I-325000J0D01*
G01*
X145573000Y-101628000D01*
G75*
G02*
X145248000Y-101303000I0J325000D01*
G01*
X145248000Y-100653000D01*
G75*
G02*
X145573000Y-100328000I325000J0D01*
G01*
G37*
G36*
G01*
X145573000Y-98778000D02*
X146273000Y-98778000D01*
G75*
G02*
X146598000Y-99103000I0J-325000D01*
G01*
X146598000Y-99753000D01*
G75*
G02*
X146273000Y-100078000I-325000J0D01*
G01*
X145573000Y-100078000D01*
G75*
G02*
X145248000Y-99753000I0J325000D01*
G01*
X145248000Y-99103000D01*
G75*
G02*
X145573000Y-98778000I325000J0D01*
G01*
G37*
%TD*%
%TO.C,C2*%
G36*
G01*
X131603000Y-98778000D02*
X132303000Y-98778000D01*
G75*
G02*
X132628000Y-99103000I0J-325000D01*
G01*
X132628000Y-99753000D01*
G75*
G02*
X132303000Y-100078000I-325000J0D01*
G01*
X131603000Y-100078000D01*
G75*
G02*
X131278000Y-99753000I0J325000D01*
G01*
X131278000Y-99103000D01*
G75*
G02*
X131603000Y-98778000I325000J0D01*
G01*
G37*
G36*
G01*
X131603000Y-100328000D02*
X132303000Y-100328000D01*
G75*
G02*
X132628000Y-100653000I0J-325000D01*
G01*
X132628000Y-101303000D01*
G75*
G02*
X132303000Y-101628000I-325000J0D01*
G01*
X131603000Y-101628000D01*
G75*
G02*
X131278000Y-101303000I0J325000D01*
G01*
X131278000Y-100653000D01*
G75*
G02*
X131603000Y-100328000I325000J0D01*
G01*
G37*
%TD*%
%TO.C,C3*%
G36*
G01*
X137445000Y-89126000D02*
X138145000Y-89126000D01*
G75*
G02*
X138470000Y-89451000I0J-325000D01*
G01*
X138470000Y-90101000D01*
G75*
G02*
X138145000Y-90426000I-325000J0D01*
G01*
X137445000Y-90426000D01*
G75*
G02*
X137120000Y-90101000I0J325000D01*
G01*
X137120000Y-89451000D01*
G75*
G02*
X137445000Y-89126000I325000J0D01*
G01*
G37*
G36*
G01*
X137445000Y-90676000D02*
X138145000Y-90676000D01*
G75*
G02*
X138470000Y-91001000I0J-325000D01*
G01*
X138470000Y-91651000D01*
G75*
G02*
X138145000Y-91976000I-325000J0D01*
G01*
X137445000Y-91976000D01*
G75*
G02*
X137120000Y-91651000I0J325000D01*
G01*
X137120000Y-91001000D01*
G75*
G02*
X137445000Y-90676000I325000J0D01*
G01*
G37*
%TD*%
%TO.C,J1*%
G36*
G01*
X142399000Y-84513000D02*
X142399000Y-83063000D01*
G75*
G02*
X142649000Y-82813000I250000J0D01*
G01*
X143149000Y-82813000D01*
G75*
G02*
X143399000Y-83063000I0J-250000D01*
G01*
X143399000Y-84513000D01*
G75*
G02*
X143149000Y-84763000I-250000J0D01*
G01*
X142649000Y-84763000D01*
G75*
G02*
X142399000Y-84513000I0J250000D01*
G01*
G37*
G36*
G01*
X143399000Y-84513000D02*
X143399000Y-83063000D01*
G75*
G02*
X143649000Y-82813000I250000J0D01*
G01*
X144149000Y-82813000D01*
G75*
G02*
X144399000Y-83063000I0J-250000D01*
G01*
X144399000Y-84513000D01*
G75*
G02*
X144149000Y-84763000I-250000J0D01*
G01*
X143649000Y-84763000D01*
G75*
G02*
X143399000Y-84513000I0J250000D01*
G01*
G37*
G36*
G01*
X144399000Y-84513000D02*
X144399000Y-83063000D01*
G75*
G02*
X144649000Y-82813000I250000J0D01*
G01*
X145149000Y-82813000D01*
G75*
G02*
X145399000Y-83063000I0J-250000D01*
G01*
X145399000Y-84513000D01*
G75*
G02*
X145149000Y-84763000I-250000J0D01*
G01*
X144649000Y-84763000D01*
G75*
G02*
X144399000Y-84513000I0J250000D01*
G01*
G37*
G36*
G01*
X145399000Y-84513000D02*
X145399000Y-83063000D01*
G75*
G02*
X145649000Y-82813000I250000J0D01*
G01*
X146149000Y-82813000D01*
G75*
G02*
X146399000Y-83063000I0J-250000D01*
G01*
X146399000Y-84513000D01*
G75*
G02*
X146149000Y-84763000I-250000J0D01*
G01*
X145649000Y-84763000D01*
G75*
G02*
X145399000Y-84513000I0J250000D01*
G01*
G37*
G36*
G01*
X140799000Y-80679668D02*
X140799000Y-79146332D01*
G75*
G02*
X141132332Y-78813000I333332J0D01*
G01*
X142065668Y-78813000D01*
G75*
G02*
X142399000Y-79146332I0J-333332D01*
G01*
X142399000Y-80679668D01*
G75*
G02*
X142065668Y-81013000I-333332J0D01*
G01*
X141132332Y-81013000D01*
G75*
G02*
X140799000Y-80679668I0J333332D01*
G01*
G37*
G36*
G01*
X146399000Y-80679668D02*
X146399000Y-79146332D01*
G75*
G02*
X146732332Y-78813000I333332J0D01*
G01*
X147665668Y-78813000D01*
G75*
G02*
X147999000Y-79146332I0J-333332D01*
G01*
X147999000Y-80679668D01*
G75*
G02*
X147665668Y-81013000I-333332J0D01*
G01*
X146732332Y-81013000D01*
G75*
G02*
X146399000Y-80679668I0J333332D01*
G01*
G37*
%TD*%
%TO.C,U1*%
G36*
G01*
X144813000Y-96778000D02*
X144813000Y-97278000D01*
G75*
G02*
X144563000Y-97528000I-250000J0D01*
G01*
X142613000Y-97528000D01*
G75*
G02*
X142363000Y-97278000I0J250000D01*
G01*
X142363000Y-96778000D01*
G75*
G02*
X142613000Y-96528000I250000J0D01*
G01*
X144563000Y-96528000D01*
G75*
G02*
X144813000Y-96778000I0J-250000D01*
G01*
G37*
G36*
G01*
X144813000Y-98048000D02*
X144813000Y-98548000D01*
G75*
G02*
X144563000Y-98798000I-250000J0D01*
G01*
X142613000Y-98798000D01*
G75*
G02*
X142363000Y-98548000I0J250000D01*
G01*
X142363000Y-98048000D01*
G75*
G02*
X142613000Y-97798000I250000J0D01*
G01*
X144563000Y-97798000D01*
G75*
G02*
X144813000Y-98048000I0J-250000D01*
G01*
G37*
G36*
G01*
X144813000Y-99318000D02*
X144813000Y-99818000D01*
G75*
G02*
X144563000Y-100068000I-250000J0D01*
G01*
X142613000Y-100068000D01*
G75*
G02*
X142363000Y-99818000I0J250000D01*
G01*
X142363000Y-99318000D01*
G75*
G02*
X142613000Y-99068000I250000J0D01*
G01*
X144563000Y-99068000D01*
G75*
G02*
X144813000Y-99318000I0J-250000D01*
G01*
G37*
G36*
G01*
X144813000Y-100588000D02*
X144813000Y-101088000D01*
G75*
G02*
X144563000Y-101338000I-250000J0D01*
G01*
X142613000Y-101338000D01*
G75*
G02*
X142363000Y-101088000I0J250000D01*
G01*
X142363000Y-100588000D01*
G75*
G02*
X142613000Y-100338000I250000J0D01*
G01*
X144563000Y-100338000D01*
G75*
G02*
X144813000Y-100588000I0J-250000D01*
G01*
G37*
G36*
G01*
X144813000Y-101858000D02*
X144813000Y-102358000D01*
G75*
G02*
X144563000Y-102608000I-250000J0D01*
G01*
X142613000Y-102608000D01*
G75*
G02*
X142363000Y-102358000I0J250000D01*
G01*
X142363000Y-101858000D01*
G75*
G02*
X142613000Y-101608000I250000J0D01*
G01*
X144563000Y-101608000D01*
G75*
G02*
X144813000Y-101858000I0J-250000D01*
G01*
G37*
G36*
G01*
X144813000Y-103128000D02*
X144813000Y-103628000D01*
G75*
G02*
X144563000Y-103878000I-250000J0D01*
G01*
X142613000Y-103878000D01*
G75*
G02*
X142363000Y-103628000I0J250000D01*
G01*
X142363000Y-103128000D01*
G75*
G02*
X142613000Y-102878000I250000J0D01*
G01*
X144563000Y-102878000D01*
G75*
G02*
X144813000Y-103128000I0J-250000D01*
G01*
G37*
G36*
G01*
X144813000Y-104398000D02*
X144813000Y-104898000D01*
G75*
G02*
X144563000Y-105148000I-250000J0D01*
G01*
X142613000Y-105148000D01*
G75*
G02*
X142363000Y-104898000I0J250000D01*
G01*
X142363000Y-104398000D01*
G75*
G02*
X142613000Y-104148000I250000J0D01*
G01*
X144563000Y-104148000D01*
G75*
G02*
X144813000Y-104398000I0J-250000D01*
G01*
G37*
G36*
G01*
X144813000Y-105668000D02*
X144813000Y-106168000D01*
G75*
G02*
X144563000Y-106418000I-250000J0D01*
G01*
X142613000Y-106418000D01*
G75*
G02*
X142363000Y-106168000I0J250000D01*
G01*
X142363000Y-105668000D01*
G75*
G02*
X142613000Y-105418000I250000J0D01*
G01*
X144563000Y-105418000D01*
G75*
G02*
X144813000Y-105668000I0J-250000D01*
G01*
G37*
G36*
G01*
X135513000Y-105668000D02*
X135513000Y-106168000D01*
G75*
G02*
X135263000Y-106418000I-250000J0D01*
G01*
X133313000Y-106418000D01*
G75*
G02*
X133063000Y-106168000I0J250000D01*
G01*
X133063000Y-105668000D01*
G75*
G02*
X133313000Y-105418000I250000J0D01*
G01*
X135263000Y-105418000D01*
G75*
G02*
X135513000Y-105668000I0J-250000D01*
G01*
G37*
G36*
G01*
X135513000Y-104398000D02*
X135513000Y-104898000D01*
G75*
G02*
X135263000Y-105148000I-250000J0D01*
G01*
X133313000Y-105148000D01*
G75*
G02*
X133063000Y-104898000I0J250000D01*
G01*
X133063000Y-104398000D01*
G75*
G02*
X133313000Y-104148000I250000J0D01*
G01*
X135263000Y-104148000D01*
G75*
G02*
X135513000Y-104398000I0J-250000D01*
G01*
G37*
G36*
G01*
X135513000Y-103128000D02*
X135513000Y-103628000D01*
G75*
G02*
X135263000Y-103878000I-250000J0D01*
G01*
X133313000Y-103878000D01*
G75*
G02*
X133063000Y-103628000I0J250000D01*
G01*
X133063000Y-103128000D01*
G75*
G02*
X133313000Y-102878000I250000J0D01*
G01*
X135263000Y-102878000D01*
G75*
G02*
X135513000Y-103128000I0J-250000D01*
G01*
G37*
G36*
G01*
X135513000Y-101858000D02*
X135513000Y-102358000D01*
G75*
G02*
X135263000Y-102608000I-250000J0D01*
G01*
X133313000Y-102608000D01*
G75*
G02*
X133063000Y-102358000I0J250000D01*
G01*
X133063000Y-101858000D01*
G75*
G02*
X133313000Y-101608000I250000J0D01*
G01*
X135263000Y-101608000D01*
G75*
G02*
X135513000Y-101858000I0J-250000D01*
G01*
G37*
G36*
G01*
X135513000Y-100588000D02*
X135513000Y-101088000D01*
G75*
G02*
X135263000Y-101338000I-250000J0D01*
G01*
X133313000Y-101338000D01*
G75*
G02*
X133063000Y-101088000I0J250000D01*
G01*
X133063000Y-100588000D01*
G75*
G02*
X133313000Y-100338000I250000J0D01*
G01*
X135263000Y-100338000D01*
G75*
G02*
X135513000Y-100588000I0J-250000D01*
G01*
G37*
G36*
G01*
X135513000Y-99318000D02*
X135513000Y-99818000D01*
G75*
G02*
X135263000Y-100068000I-250000J0D01*
G01*
X133313000Y-100068000D01*
G75*
G02*
X133063000Y-99818000I0J250000D01*
G01*
X133063000Y-99318000D01*
G75*
G02*
X133313000Y-99068000I250000J0D01*
G01*
X135263000Y-99068000D01*
G75*
G02*
X135513000Y-99318000I0J-250000D01*
G01*
G37*
G36*
G01*
X135513000Y-98048000D02*
X135513000Y-98548000D01*
G75*
G02*
X135263000Y-98798000I-250000J0D01*
G01*
X133313000Y-98798000D01*
G75*
G02*
X133063000Y-98548000I0J250000D01*
G01*
X133063000Y-98048000D01*
G75*
G02*
X133313000Y-97798000I250000J0D01*
G01*
X135263000Y-97798000D01*
G75*
G02*
X135513000Y-98048000I0J-250000D01*
G01*
G37*
G36*
G01*
X135513000Y-96778000D02*
X135513000Y-97278000D01*
G75*
G02*
X135263000Y-97528000I-250000J0D01*
G01*
X133313000Y-97528000D01*
G75*
G02*
X133063000Y-97278000I0J250000D01*
G01*
X133063000Y-96778000D01*
G75*
G02*
X133313000Y-96528000I250000J0D01*
G01*
X135263000Y-96528000D01*
G75*
G02*
X135513000Y-96778000I0J-250000D01*
G01*
G37*
%TD*%
%TO.C,U2*%
G36*
G01*
X136232000Y-92026000D02*
X135832000Y-92026000D01*
G75*
G02*
X135632000Y-91826000I0J200000D01*
G01*
X135632000Y-91176000D01*
G75*
G02*
X135832000Y-90976000I200000J0D01*
G01*
X136232000Y-90976000D01*
G75*
G02*
X136432000Y-91176000I0J-200000D01*
G01*
X136432000Y-91826000D01*
G75*
G02*
X136232000Y-92026000I-200000J0D01*
G01*
G37*
G36*
G01*
X134932000Y-92026000D02*
X134532000Y-92026000D01*
G75*
G02*
X134332000Y-91826000I0J200000D01*
G01*
X134332000Y-91176000D01*
G75*
G02*
X134532000Y-90976000I200000J0D01*
G01*
X134932000Y-90976000D01*
G75*
G02*
X135132000Y-91176000I0J-200000D01*
G01*
X135132000Y-91826000D01*
G75*
G02*
X134932000Y-92026000I-200000J0D01*
G01*
G37*
G36*
G01*
X135582000Y-92026000D02*
X135182000Y-92026000D01*
G75*
G02*
X134982000Y-91826000I0J200000D01*
G01*
X134982000Y-91176000D01*
G75*
G02*
X135182000Y-90976000I200000J0D01*
G01*
X135582000Y-90976000D01*
G75*
G02*
X135782000Y-91176000I0J-200000D01*
G01*
X135782000Y-91826000D01*
G75*
G02*
X135582000Y-92026000I-200000J0D01*
G01*
G37*
G36*
G01*
X134932000Y-90126000D02*
X134532000Y-90126000D01*
G75*
G02*
X134332000Y-89926000I0J200000D01*
G01*
X134332000Y-89276000D01*
G75*
G02*
X134532000Y-89076000I200000J0D01*
G01*
X134932000Y-89076000D01*
G75*
G02*
X135132000Y-89276000I0J-200000D01*
G01*
X135132000Y-89926000D01*
G75*
G02*
X134932000Y-90126000I-200000J0D01*
G01*
G37*
G36*
G01*
X136232000Y-90126000D02*
X135832000Y-90126000D01*
G75*
G02*
X135632000Y-89926000I0J200000D01*
G01*
X135632000Y-89276000D01*
G75*
G02*
X135832000Y-89076000I200000J0D01*
G01*
X136232000Y-89076000D01*
G75*
G02*
X136432000Y-89276000I0J-200000D01*
G01*
X136432000Y-89926000D01*
G75*
G02*
X136232000Y-90126000I-200000J0D01*
G01*
G37*
%TD*%
%TO.C,R1*%
G36*
G01*
X132594000Y-89126000D02*
X133344000Y-89126000D01*
G75*
G02*
X133644000Y-89426000I0J-300000D01*
G01*
X133644000Y-90026000D01*
G75*
G02*
X133344000Y-90326000I-300000J0D01*
G01*
X132594000Y-90326000D01*
G75*
G02*
X132294000Y-90026000I0J300000D01*
G01*
X132294000Y-89426000D01*
G75*
G02*
X132594000Y-89126000I300000J0D01*
G01*
G37*
G36*
G01*
X132594000Y-90776000D02*
X133344000Y-90776000D01*
G75*
G02*
X133644000Y-91076000I0J-300000D01*
G01*
X133644000Y-91676000D01*
G75*
G02*
X133344000Y-91976000I-300000J0D01*
G01*
X132594000Y-91976000D01*
G75*
G02*
X132294000Y-91676000I0J300000D01*
G01*
X132294000Y-91076000D01*
G75*
G02*
X132594000Y-90776000I300000J0D01*
G01*
G37*
%TD*%
%TO.C,R2*%
G36*
G01*
X141726000Y-90326000D02*
X140976000Y-90326000D01*
G75*
G02*
X140676000Y-90026000I0J300000D01*
G01*
X140676000Y-89426000D01*
G75*
G02*
X140976000Y-89126000I300000J0D01*
G01*
X141726000Y-89126000D01*
G75*
G02*
X142026000Y-89426000I0J-300000D01*
G01*
X142026000Y-90026000D01*
G75*
G02*
X141726000Y-90326000I-300000J0D01*
G01*
G37*
G36*
G01*
X141726000Y-91976000D02*
X140976000Y-91976000D01*
G75*
G02*
X140676000Y-91676000I0J300000D01*
G01*
X140676000Y-91076000D01*
G75*
G02*
X140976000Y-90776000I300000J0D01*
G01*
X141726000Y-90776000D01*
G75*
G02*
X142026000Y-91076000I0J-300000D01*
G01*
X142026000Y-91676000D01*
G75*
G02*
X141726000Y-91976000I-300000J0D01*
G01*
G37*
%TD*%
%TO.C,R3*%
G36*
G01*
X139948000Y-91976000D02*
X139198000Y-91976000D01*
G75*
G02*
X138898000Y-91676000I0J300000D01*
G01*
X138898000Y-91076000D01*
G75*
G02*
X139198000Y-90776000I300000J0D01*
G01*
X139948000Y-90776000D01*
G75*
G02*
X140248000Y-91076000I0J-300000D01*
G01*
X140248000Y-91676000D01*
G75*
G02*
X139948000Y-91976000I-300000J0D01*
G01*
G37*
G36*
G01*
X139948000Y-90326000D02*
X139198000Y-90326000D01*
G75*
G02*
X138898000Y-90026000I0J300000D01*
G01*
X138898000Y-89426000D01*
G75*
G02*
X139198000Y-89126000I300000J0D01*
G01*
X139948000Y-89126000D01*
G75*
G02*
X140248000Y-89426000I0J-300000D01*
G01*
X140248000Y-90026000D01*
G75*
G02*
X139948000Y-90326000I-300000J0D01*
G01*
G37*
%TD*%
M02*
