%TF.GenerationSoftware,KiCad,Pcbnew,(5.1.7)-1*%
%TF.CreationDate,2021-01-11T01:01:30-05:00*%
%TF.ProjectId,d1_mini_clock,64315f6d-696e-4695-9f63-6c6f636b2e6b,rev?*%
%TF.SameCoordinates,Original*%
%TF.FileFunction,Copper,L1,Top*%
%TF.FilePolarity,Positive*%
%FSLAX46Y46*%
G04 Gerber Fmt 4.6, Leading zero omitted, Abs format (unit mm)*
G04 Created by KiCad (PCBNEW (5.1.7)-1) date 2021-01-11 01:01:30*
%MOMM*%
%LPD*%
G01*
G04 APERTURE LIST*
%TA.AperFunction,ComponentPad*%
%ADD10R,1.800000X1.800000*%
%TD*%
%TA.AperFunction,ComponentPad*%
%ADD11O,1.800000X1.800000*%
%TD*%
%TA.AperFunction,SMDPad,CuDef*%
%ADD12R,3.600000X2.600000*%
%TD*%
%TA.AperFunction,ViaPad*%
%ADD13C,0.600000*%
%TD*%
%TA.AperFunction,Conductor*%
%ADD14C,0.250000*%
%TD*%
%TA.AperFunction,Conductor*%
%ADD15C,0.609600*%
%TD*%
%TA.AperFunction,Conductor*%
%ADD16C,0.203200*%
%TD*%
%TA.AperFunction,Conductor*%
%ADD17C,0.100000*%
%TD*%
G04 APERTURE END LIST*
D10*
%TO.P,P1,1*%
%TO.N,VCC*%
X127490000Y-103950000D03*
D11*
%TO.P,P1,2*%
%TO.N,GND*%
X127490000Y-101410000D03*
%TO.P,P1,3*%
%TO.N,/D4*%
X127490000Y-98870000D03*
%TO.P,P1,4*%
%TO.N,N/C*%
X127490000Y-96330000D03*
%TO.P,P1,5*%
%TO.N,/SDA*%
X127490000Y-93790000D03*
%TO.P,P1,6*%
%TO.N,/SCL*%
X127490000Y-91250000D03*
%TO.P,P1,7*%
%TO.N,N/C*%
X127490000Y-88710000D03*
%TO.P,P1,8*%
X127490000Y-86170000D03*
%TD*%
D10*
%TO.P,P2,1*%
%TO.N,/+3.3V*%
X150350000Y-103950000D03*
D11*
%TO.P,P2,2*%
%TO.N,N/C*%
X150350000Y-101410000D03*
%TO.P,P2,3*%
X150350000Y-98870000D03*
%TO.P,P2,4*%
X150350000Y-96330000D03*
%TO.P,P2,5*%
X150350000Y-93790000D03*
%TO.P,P2,6*%
X150350000Y-91250000D03*
%TO.P,P2,7*%
X150350000Y-88710000D03*
%TO.P,P2,8*%
X150350000Y-86170000D03*
%TD*%
D12*
%TO.P,BT1,2*%
%TO.N,GND*%
X138938000Y-80346000D03*
%TO.P,BT1,1*%
%TO.N,Net-(BT1-Pad1)*%
X138938000Y-109646000D03*
%TD*%
D13*
%TO.N,/D4*%
X135382000Y-92202004D03*
%TO.N,/+3.3V*%
X143637000Y-89789000D03*
X145923000Y-97536000D03*
%TO.N,GND*%
X138938000Y-82931000D03*
X135382000Y-90424000D03*
X138049000Y-86360000D03*
X142875000Y-85344000D03*
X131953000Y-102108000D03*
X145923000Y-102108000D03*
%TO.N,Net-(BT1-Pad1)*%
X138938000Y-102743000D03*
%TO.N,VCC*%
X134747000Y-83693000D03*
%TO.N,/SDA*%
X144780000Y-93726000D03*
X144907000Y-89789000D03*
%TO.N,/SCL*%
X137160000Y-94742000D03*
X137160000Y-92963996D03*
%TD*%
D14*
%TO.N,/D4*%
X133032000Y-98870000D02*
X135382000Y-96520000D01*
X135382000Y-96520000D02*
X135382000Y-92202004D01*
X127490000Y-98870000D02*
X133032000Y-98870000D01*
%TO.N,/+3.3V*%
X143637000Y-89789000D02*
X143637000Y-95250000D01*
X143637000Y-95250000D02*
X145923000Y-97536000D01*
%TO.N,GND*%
X138938000Y-80346000D02*
X138938000Y-82931000D01*
%TO.N,Net-(BT1-Pad1)*%
X138938000Y-102743000D02*
X138938000Y-109646000D01*
D15*
%TO.N,VCC*%
X136355199Y-85301199D02*
X134747000Y-83693000D01*
X136355199Y-99398199D02*
X136355199Y-85301199D01*
X131803398Y-103950000D02*
X127490000Y-103950000D01*
X136355199Y-99398199D02*
X131803398Y-103950000D01*
D14*
%TO.N,/SDA*%
X144907000Y-93599000D02*
X144907000Y-89789000D01*
X144780000Y-93726000D02*
X144907000Y-93599000D01*
%TO.N,/SCL*%
X137160000Y-94742000D02*
X137160000Y-92963996D01*
%TD*%
D16*
%TO.N,GND*%
X148819535Y-79005282D02*
X149369293Y-79271177D01*
X149865944Y-79590607D01*
X150300623Y-79975126D01*
X150667298Y-80439535D01*
X150959756Y-81003730D01*
X151167545Y-81690753D01*
X151275508Y-82524570D01*
X151278603Y-85322917D01*
X151150398Y-85194712D01*
X150944749Y-85057302D01*
X150716245Y-84962652D01*
X150473666Y-84914400D01*
X150226334Y-84914400D01*
X149983755Y-84962652D01*
X149755251Y-85057302D01*
X149549602Y-85194712D01*
X149374712Y-85369602D01*
X149237302Y-85575251D01*
X149142652Y-85803755D01*
X149094400Y-86046334D01*
X149094400Y-86293666D01*
X149142652Y-86536245D01*
X149237302Y-86764749D01*
X149374712Y-86970398D01*
X149549602Y-87145288D01*
X149755251Y-87282698D01*
X149983755Y-87377348D01*
X150226334Y-87425600D01*
X150473666Y-87425600D01*
X150716245Y-87377348D01*
X150944749Y-87282698D01*
X151150398Y-87145288D01*
X151280475Y-87015211D01*
X151281416Y-87865730D01*
X151150398Y-87734712D01*
X150944749Y-87597302D01*
X150716245Y-87502652D01*
X150473666Y-87454400D01*
X150226334Y-87454400D01*
X149983755Y-87502652D01*
X149755251Y-87597302D01*
X149549602Y-87734712D01*
X149374712Y-87909602D01*
X149237302Y-88115251D01*
X149142652Y-88343755D01*
X149094400Y-88586334D01*
X149094400Y-88833666D01*
X149142652Y-89076245D01*
X149237302Y-89304749D01*
X149374712Y-89510398D01*
X149549602Y-89685288D01*
X149755251Y-89822698D01*
X149983755Y-89917348D01*
X150226334Y-89965600D01*
X150473666Y-89965600D01*
X150716245Y-89917348D01*
X150944749Y-89822698D01*
X151150398Y-89685288D01*
X151283281Y-89552405D01*
X151284228Y-90408542D01*
X151150398Y-90274712D01*
X150944749Y-90137302D01*
X150716245Y-90042652D01*
X150473666Y-89994400D01*
X150226334Y-89994400D01*
X149983755Y-90042652D01*
X149755251Y-90137302D01*
X149549602Y-90274712D01*
X149374712Y-90449602D01*
X149237302Y-90655251D01*
X149142652Y-90883755D01*
X149094400Y-91126334D01*
X149094400Y-91373666D01*
X149142652Y-91616245D01*
X149237302Y-91844749D01*
X149374712Y-92050398D01*
X149549602Y-92225288D01*
X149755251Y-92362698D01*
X149983755Y-92457348D01*
X150226334Y-92505600D01*
X150473666Y-92505600D01*
X150716245Y-92457348D01*
X150944749Y-92362698D01*
X151150398Y-92225288D01*
X151286087Y-92089599D01*
X151287041Y-92951355D01*
X151150398Y-92814712D01*
X150944749Y-92677302D01*
X150716245Y-92582652D01*
X150473666Y-92534400D01*
X150226334Y-92534400D01*
X149983755Y-92582652D01*
X149755251Y-92677302D01*
X149549602Y-92814712D01*
X149374712Y-92989602D01*
X149237302Y-93195251D01*
X149142652Y-93423755D01*
X149094400Y-93666334D01*
X149094400Y-93913666D01*
X149142652Y-94156245D01*
X149237302Y-94384749D01*
X149374712Y-94590398D01*
X149549602Y-94765288D01*
X149755251Y-94902698D01*
X149983755Y-94997348D01*
X150226334Y-95045600D01*
X150473666Y-95045600D01*
X150716245Y-94997348D01*
X150944749Y-94902698D01*
X151150398Y-94765288D01*
X151288894Y-94626792D01*
X151289853Y-95494167D01*
X151150398Y-95354712D01*
X150944749Y-95217302D01*
X150716245Y-95122652D01*
X150473666Y-95074400D01*
X150226334Y-95074400D01*
X149983755Y-95122652D01*
X149755251Y-95217302D01*
X149549602Y-95354712D01*
X149374712Y-95529602D01*
X149237302Y-95735251D01*
X149142652Y-95963755D01*
X149094400Y-96206334D01*
X149094400Y-96453666D01*
X149142652Y-96696245D01*
X149237302Y-96924749D01*
X149374712Y-97130398D01*
X149549602Y-97305288D01*
X149755251Y-97442698D01*
X149983755Y-97537348D01*
X150226334Y-97585600D01*
X150473666Y-97585600D01*
X150716245Y-97537348D01*
X150944749Y-97442698D01*
X151150398Y-97305288D01*
X151291700Y-97163986D01*
X151292666Y-98036980D01*
X151150398Y-97894712D01*
X150944749Y-97757302D01*
X150716245Y-97662652D01*
X150473666Y-97614400D01*
X150226334Y-97614400D01*
X149983755Y-97662652D01*
X149755251Y-97757302D01*
X149549602Y-97894712D01*
X149374712Y-98069602D01*
X149237302Y-98275251D01*
X149142652Y-98503755D01*
X149094400Y-98746334D01*
X149094400Y-98993666D01*
X149142652Y-99236245D01*
X149237302Y-99464749D01*
X149374712Y-99670398D01*
X149549602Y-99845288D01*
X149755251Y-99982698D01*
X149983755Y-100077348D01*
X150226334Y-100125600D01*
X150473666Y-100125600D01*
X150716245Y-100077348D01*
X150944749Y-99982698D01*
X151150398Y-99845288D01*
X151294507Y-99701179D01*
X151295478Y-100579792D01*
X151150398Y-100434712D01*
X150944749Y-100297302D01*
X150716245Y-100202652D01*
X150473666Y-100154400D01*
X150226334Y-100154400D01*
X149983755Y-100202652D01*
X149755251Y-100297302D01*
X149549602Y-100434712D01*
X149374712Y-100609602D01*
X149237302Y-100815251D01*
X149142652Y-101043755D01*
X149094400Y-101286334D01*
X149094400Y-101533666D01*
X149142652Y-101776245D01*
X149237302Y-102004749D01*
X149374712Y-102210398D01*
X149549602Y-102385288D01*
X149755251Y-102522698D01*
X149983755Y-102617348D01*
X150226334Y-102665600D01*
X150473666Y-102665600D01*
X150716245Y-102617348D01*
X150944749Y-102522698D01*
X151150398Y-102385288D01*
X151297313Y-102238373D01*
X151297821Y-102697390D01*
X151250000Y-102692680D01*
X149450000Y-102692680D01*
X149380290Y-102699546D01*
X149313260Y-102719879D01*
X149251484Y-102752899D01*
X149197337Y-102797337D01*
X149152899Y-102851484D01*
X149119879Y-102913260D01*
X149099546Y-102980290D01*
X149092680Y-103050000D01*
X149092680Y-104850000D01*
X149099546Y-104919710D01*
X149119879Y-104986740D01*
X149152899Y-105048516D01*
X149197337Y-105102663D01*
X149251484Y-105147101D01*
X149313260Y-105180121D01*
X149380290Y-105200454D01*
X149450000Y-105207320D01*
X150479298Y-105207320D01*
X149611699Y-105636264D01*
X149604434Y-105638512D01*
X149575984Y-105653922D01*
X149564863Y-105659420D01*
X149558426Y-105663432D01*
X149534181Y-105676564D01*
X149524607Y-105684510D01*
X149514046Y-105691092D01*
X149493937Y-105709965D01*
X149472701Y-105727589D01*
X149464857Y-105737255D01*
X149455788Y-105745767D01*
X149439742Y-105768208D01*
X149422359Y-105789630D01*
X149416555Y-105800634D01*
X149409316Y-105810758D01*
X149397953Y-105835904D01*
X149385086Y-105860299D01*
X149381541Y-105872221D01*
X149376415Y-105883565D01*
X149370177Y-105910444D01*
X149362316Y-105936882D01*
X149361165Y-105949274D01*
X149358352Y-105961393D01*
X149357477Y-105988963D01*
X149356777Y-105996503D01*
X149356845Y-106008887D01*
X149355819Y-106041248D01*
X149357066Y-106048753D01*
X149392152Y-112394400D01*
X144308898Y-112394400D01*
X144315289Y-111605201D01*
X144317411Y-111583487D01*
X144313637Y-111545466D01*
X144310210Y-111507524D01*
X144309700Y-111505791D01*
X144309520Y-111503982D01*
X144298384Y-111467372D01*
X144287637Y-111430883D01*
X144286798Y-111429283D01*
X144286269Y-111427543D01*
X144268229Y-111393856D01*
X144250546Y-111360118D01*
X144249408Y-111358708D01*
X144248552Y-111357110D01*
X144224301Y-111327604D01*
X144200363Y-111297949D01*
X144198975Y-111296791D01*
X144197821Y-111295387D01*
X144168258Y-111271163D01*
X144139014Y-111246765D01*
X144137424Y-111245898D01*
X144136021Y-111244749D01*
X144102322Y-111226769D01*
X144068860Y-111208533D01*
X144067133Y-111207994D01*
X144065531Y-111207139D01*
X144028980Y-111196082D01*
X143992594Y-111184721D01*
X143990792Y-111184529D01*
X143989057Y-111184004D01*
X143951115Y-111180297D01*
X143913149Y-111176247D01*
X143891418Y-111178210D01*
X141005655Y-111180395D01*
X141035101Y-111144516D01*
X141068121Y-111082740D01*
X141088454Y-111015710D01*
X141095320Y-110946000D01*
X141095320Y-108346000D01*
X141088454Y-108276290D01*
X141068121Y-108209260D01*
X141035101Y-108147484D01*
X140990663Y-108093337D01*
X140936516Y-108048899D01*
X140874740Y-108015879D01*
X140807710Y-107995546D01*
X140738000Y-107988680D01*
X139418600Y-107988680D01*
X139418600Y-103189559D01*
X139447238Y-103160921D01*
X139518985Y-103053543D01*
X139568405Y-102934231D01*
X139593600Y-102807571D01*
X139593600Y-102678429D01*
X139568405Y-102551769D01*
X139518985Y-102432457D01*
X139447238Y-102325079D01*
X139355921Y-102233762D01*
X139248543Y-102162015D01*
X139129231Y-102112595D01*
X139002571Y-102087400D01*
X138873429Y-102087400D01*
X138746769Y-102112595D01*
X138627457Y-102162015D01*
X138520079Y-102233762D01*
X138428762Y-102325079D01*
X138357015Y-102432457D01*
X138307595Y-102551769D01*
X138282400Y-102678429D01*
X138282400Y-102807571D01*
X138307595Y-102934231D01*
X138357015Y-103053543D01*
X138428762Y-103160921D01*
X138457400Y-103189559D01*
X138457401Y-107988680D01*
X137138000Y-107988680D01*
X137068290Y-107995546D01*
X137001260Y-108015879D01*
X136939484Y-108048899D01*
X136885337Y-108093337D01*
X136840899Y-108147484D01*
X136807879Y-108209260D01*
X136787546Y-108276290D01*
X136780680Y-108346000D01*
X136780680Y-110946000D01*
X136787546Y-111015710D01*
X136807879Y-111082740D01*
X136840899Y-111144516D01*
X136872913Y-111183525D01*
X135098065Y-111184869D01*
X135077958Y-111182922D01*
X135038296Y-111186894D01*
X134998814Y-111190813D01*
X134998640Y-111190866D01*
X134998460Y-111190884D01*
X134960267Y-111202538D01*
X134922375Y-111214064D01*
X134922217Y-111214149D01*
X134922042Y-111214202D01*
X134886858Y-111233083D01*
X134851942Y-111251780D01*
X134851802Y-111251895D01*
X134851642Y-111251981D01*
X134821081Y-111277146D01*
X134790219Y-111302512D01*
X134790103Y-111302653D01*
X134789964Y-111302768D01*
X134765059Y-111333217D01*
X134739581Y-111364311D01*
X134739494Y-111364473D01*
X134739381Y-111364612D01*
X134721027Y-111399087D01*
X134701971Y-111434802D01*
X134701917Y-111434980D01*
X134701834Y-111435136D01*
X134690526Y-111472632D01*
X134678836Y-111511275D01*
X134678818Y-111511457D01*
X134678766Y-111511630D01*
X134674906Y-111551498D01*
X134671066Y-111590791D01*
X134673060Y-111610883D01*
X134674334Y-112385968D01*
X126405589Y-112362222D01*
X126408824Y-105156370D01*
X126453260Y-105180121D01*
X126520290Y-105200454D01*
X126590000Y-105207320D01*
X128390000Y-105207320D01*
X128459710Y-105200454D01*
X128526740Y-105180121D01*
X128588516Y-105147101D01*
X128642663Y-105102663D01*
X128687101Y-105048516D01*
X128720121Y-104986740D01*
X128740454Y-104919710D01*
X128747320Y-104850000D01*
X128747320Y-104610400D01*
X131770959Y-104610400D01*
X131803398Y-104613595D01*
X131835837Y-104610400D01*
X131932859Y-104600844D01*
X132057345Y-104563082D01*
X132172072Y-104501759D01*
X132272631Y-104419233D01*
X132293316Y-104394028D01*
X136799233Y-99888112D01*
X136824432Y-99867432D01*
X136906958Y-99766873D01*
X136968281Y-99652146D01*
X137006043Y-99527660D01*
X137015599Y-99430638D01*
X137015599Y-99430637D01*
X137018794Y-99398199D01*
X137015599Y-99365760D01*
X137015599Y-95381720D01*
X137095429Y-95397600D01*
X137224571Y-95397600D01*
X137351231Y-95372405D01*
X137470543Y-95322985D01*
X137577921Y-95251238D01*
X137669238Y-95159921D01*
X137740985Y-95052543D01*
X137790405Y-94933231D01*
X137815600Y-94806571D01*
X137815600Y-94677429D01*
X137790405Y-94550769D01*
X137740985Y-94431457D01*
X137669238Y-94324079D01*
X137640600Y-94295441D01*
X137640600Y-93410555D01*
X137669238Y-93381917D01*
X137740985Y-93274539D01*
X137790405Y-93155227D01*
X137815600Y-93028567D01*
X137815600Y-92899425D01*
X137790405Y-92772765D01*
X137740985Y-92653453D01*
X137669238Y-92546075D01*
X137577921Y-92454758D01*
X137470543Y-92383011D01*
X137351231Y-92333591D01*
X137224571Y-92308396D01*
X137095429Y-92308396D01*
X137015599Y-92324276D01*
X137015599Y-89724429D01*
X142981400Y-89724429D01*
X142981400Y-89853571D01*
X143006595Y-89980231D01*
X143056015Y-90099543D01*
X143127762Y-90206921D01*
X143156400Y-90235559D01*
X143156401Y-95226386D01*
X143154075Y-95250000D01*
X143163355Y-95344213D01*
X143190836Y-95434808D01*
X143235463Y-95518298D01*
X143235464Y-95518299D01*
X143295521Y-95591480D01*
X143313861Y-95606531D01*
X145267400Y-97560071D01*
X145267400Y-97600571D01*
X145292595Y-97727231D01*
X145342015Y-97846543D01*
X145413762Y-97953921D01*
X145505079Y-98045238D01*
X145612457Y-98116985D01*
X145731769Y-98166405D01*
X145858429Y-98191600D01*
X145987571Y-98191600D01*
X146114231Y-98166405D01*
X146233543Y-98116985D01*
X146340921Y-98045238D01*
X146432238Y-97953921D01*
X146503985Y-97846543D01*
X146553405Y-97727231D01*
X146578600Y-97600571D01*
X146578600Y-97471429D01*
X146553405Y-97344769D01*
X146503985Y-97225457D01*
X146432238Y-97118079D01*
X146340921Y-97026762D01*
X146233543Y-96955015D01*
X146114231Y-96905595D01*
X145987571Y-96880400D01*
X145947071Y-96880400D01*
X144117600Y-95050930D01*
X144117600Y-90235559D01*
X144146238Y-90206921D01*
X144217985Y-90099543D01*
X144267405Y-89980231D01*
X144272000Y-89957131D01*
X144276595Y-89980231D01*
X144326015Y-90099543D01*
X144397762Y-90206921D01*
X144426401Y-90235560D01*
X144426400Y-93173784D01*
X144362079Y-93216762D01*
X144270762Y-93308079D01*
X144199015Y-93415457D01*
X144149595Y-93534769D01*
X144124400Y-93661429D01*
X144124400Y-93790571D01*
X144149595Y-93917231D01*
X144199015Y-94036543D01*
X144270762Y-94143921D01*
X144362079Y-94235238D01*
X144469457Y-94306985D01*
X144588769Y-94356405D01*
X144715429Y-94381600D01*
X144844571Y-94381600D01*
X144971231Y-94356405D01*
X145090543Y-94306985D01*
X145197921Y-94235238D01*
X145289238Y-94143921D01*
X145360985Y-94036543D01*
X145410405Y-93917231D01*
X145435600Y-93790571D01*
X145435600Y-93661429D01*
X145410405Y-93534769D01*
X145387600Y-93479712D01*
X145387600Y-90235559D01*
X145416238Y-90206921D01*
X145487985Y-90099543D01*
X145537405Y-89980231D01*
X145562600Y-89853571D01*
X145562600Y-89724429D01*
X145537405Y-89597769D01*
X145487985Y-89478457D01*
X145416238Y-89371079D01*
X145324921Y-89279762D01*
X145217543Y-89208015D01*
X145098231Y-89158595D01*
X144971571Y-89133400D01*
X144842429Y-89133400D01*
X144715769Y-89158595D01*
X144596457Y-89208015D01*
X144489079Y-89279762D01*
X144397762Y-89371079D01*
X144326015Y-89478457D01*
X144276595Y-89597769D01*
X144272000Y-89620869D01*
X144267405Y-89597769D01*
X144217985Y-89478457D01*
X144146238Y-89371079D01*
X144054921Y-89279762D01*
X143947543Y-89208015D01*
X143828231Y-89158595D01*
X143701571Y-89133400D01*
X143572429Y-89133400D01*
X143445769Y-89158595D01*
X143326457Y-89208015D01*
X143219079Y-89279762D01*
X143127762Y-89371079D01*
X143056015Y-89478457D01*
X143006595Y-89597769D01*
X142981400Y-89724429D01*
X137015599Y-89724429D01*
X137015599Y-85333638D01*
X137018794Y-85301199D01*
X137006043Y-85171738D01*
X136968281Y-85047252D01*
X136906958Y-84932525D01*
X136845110Y-84857163D01*
X136824432Y-84831966D01*
X136799232Y-84811285D01*
X135191035Y-83203089D01*
X135115673Y-83141242D01*
X135000946Y-83079918D01*
X134876460Y-83042156D01*
X134747000Y-83029405D01*
X134617540Y-83042156D01*
X134493054Y-83079918D01*
X134378327Y-83141242D01*
X134277768Y-83223768D01*
X134195242Y-83324327D01*
X134133918Y-83439054D01*
X134096156Y-83563540D01*
X134083405Y-83693000D01*
X134096156Y-83822460D01*
X134133918Y-83946946D01*
X134195242Y-84061673D01*
X134257089Y-84137035D01*
X135694800Y-85574747D01*
X135694800Y-91622527D01*
X135692543Y-91621019D01*
X135573231Y-91571599D01*
X135446571Y-91546404D01*
X135317429Y-91546404D01*
X135190769Y-91571599D01*
X135071457Y-91621019D01*
X134964079Y-91692766D01*
X134872762Y-91784083D01*
X134801015Y-91891461D01*
X134751595Y-92010773D01*
X134726400Y-92137433D01*
X134726400Y-92266575D01*
X134751595Y-92393235D01*
X134801015Y-92512547D01*
X134872762Y-92619925D01*
X134901401Y-92648564D01*
X134901400Y-96320929D01*
X132832930Y-98389400D01*
X128649980Y-98389400D01*
X128602698Y-98275251D01*
X128465288Y-98069602D01*
X128290398Y-97894712D01*
X128084749Y-97757302D01*
X127856245Y-97662652D01*
X127613666Y-97614400D01*
X127366334Y-97614400D01*
X127123755Y-97662652D01*
X126895251Y-97757302D01*
X126689602Y-97894712D01*
X126514712Y-98069602D01*
X126411938Y-98223415D01*
X126412497Y-96977423D01*
X126514712Y-97130398D01*
X126689602Y-97305288D01*
X126895251Y-97442698D01*
X127123755Y-97537348D01*
X127366334Y-97585600D01*
X127613666Y-97585600D01*
X127856245Y-97537348D01*
X128084749Y-97442698D01*
X128290398Y-97305288D01*
X128465288Y-97130398D01*
X128602698Y-96924749D01*
X128697348Y-96696245D01*
X128745600Y-96453666D01*
X128745600Y-96206334D01*
X128697348Y-95963755D01*
X128602698Y-95735251D01*
X128465288Y-95529602D01*
X128290398Y-95354712D01*
X128084749Y-95217302D01*
X127856245Y-95122652D01*
X127613666Y-95074400D01*
X127366334Y-95074400D01*
X127123755Y-95122652D01*
X126895251Y-95217302D01*
X126689602Y-95354712D01*
X126514712Y-95529602D01*
X126413079Y-95681707D01*
X126413637Y-94439128D01*
X126514712Y-94590398D01*
X126689602Y-94765288D01*
X126895251Y-94902698D01*
X127123755Y-94997348D01*
X127366334Y-95045600D01*
X127613666Y-95045600D01*
X127856245Y-94997348D01*
X128084749Y-94902698D01*
X128290398Y-94765288D01*
X128465288Y-94590398D01*
X128602698Y-94384749D01*
X128697348Y-94156245D01*
X128745600Y-93913666D01*
X128745600Y-93666334D01*
X128697348Y-93423755D01*
X128602698Y-93195251D01*
X128465288Y-92989602D01*
X128290398Y-92814712D01*
X128084749Y-92677302D01*
X127856245Y-92582652D01*
X127613666Y-92534400D01*
X127366334Y-92534400D01*
X127123755Y-92582652D01*
X126895251Y-92677302D01*
X126689602Y-92814712D01*
X126514712Y-92989602D01*
X126414220Y-93139998D01*
X126414777Y-91900834D01*
X126514712Y-92050398D01*
X126689602Y-92225288D01*
X126895251Y-92362698D01*
X127123755Y-92457348D01*
X127366334Y-92505600D01*
X127613666Y-92505600D01*
X127856245Y-92457348D01*
X128084749Y-92362698D01*
X128290398Y-92225288D01*
X128465288Y-92050398D01*
X128602698Y-91844749D01*
X128697348Y-91616245D01*
X128745600Y-91373666D01*
X128745600Y-91126334D01*
X128697348Y-90883755D01*
X128602698Y-90655251D01*
X128465288Y-90449602D01*
X128290398Y-90274712D01*
X128084749Y-90137302D01*
X127856245Y-90042652D01*
X127613666Y-89994400D01*
X127366334Y-89994400D01*
X127123755Y-90042652D01*
X126895251Y-90137302D01*
X126689602Y-90274712D01*
X126514712Y-90449602D01*
X126415362Y-90598290D01*
X126415917Y-89362540D01*
X126514712Y-89510398D01*
X126689602Y-89685288D01*
X126895251Y-89822698D01*
X127123755Y-89917348D01*
X127366334Y-89965600D01*
X127613666Y-89965600D01*
X127856245Y-89917348D01*
X128084749Y-89822698D01*
X128290398Y-89685288D01*
X128465288Y-89510398D01*
X128602698Y-89304749D01*
X128697348Y-89076245D01*
X128745600Y-88833666D01*
X128745600Y-88586334D01*
X128697348Y-88343755D01*
X128602698Y-88115251D01*
X128465288Y-87909602D01*
X128290398Y-87734712D01*
X128084749Y-87597302D01*
X127856245Y-87502652D01*
X127613666Y-87454400D01*
X127366334Y-87454400D01*
X127123755Y-87502652D01*
X126895251Y-87597302D01*
X126689602Y-87734712D01*
X126514712Y-87909602D01*
X126416503Y-88056582D01*
X126417057Y-86824246D01*
X126514712Y-86970398D01*
X126689602Y-87145288D01*
X126895251Y-87282698D01*
X127123755Y-87377348D01*
X127366334Y-87425600D01*
X127613666Y-87425600D01*
X127856245Y-87377348D01*
X128084749Y-87282698D01*
X128290398Y-87145288D01*
X128465288Y-86970398D01*
X128602698Y-86764749D01*
X128697348Y-86536245D01*
X128745600Y-86293666D01*
X128745600Y-86046334D01*
X128697348Y-85803755D01*
X128602698Y-85575251D01*
X128465288Y-85369602D01*
X128290398Y-85194712D01*
X128084749Y-85057302D01*
X127856245Y-84962652D01*
X127613666Y-84914400D01*
X127366334Y-84914400D01*
X127123755Y-84962652D01*
X126895251Y-85057302D01*
X126689602Y-85194712D01*
X126514712Y-85369602D01*
X126417645Y-85514874D01*
X126419370Y-81672198D01*
X126429488Y-81646000D01*
X136780679Y-81646000D01*
X136787545Y-81715710D01*
X136807878Y-81782741D01*
X136840898Y-81844517D01*
X136885336Y-81898664D01*
X136939483Y-81943102D01*
X137001259Y-81976122D01*
X137068290Y-81996455D01*
X137138000Y-82003321D01*
X138823700Y-82001600D01*
X138912600Y-81912700D01*
X138912600Y-80371400D01*
X138963400Y-80371400D01*
X138963400Y-81912700D01*
X139052300Y-82001600D01*
X140738000Y-82003321D01*
X140807710Y-81996455D01*
X140874741Y-81976122D01*
X140936517Y-81943102D01*
X140990664Y-81898664D01*
X141035102Y-81844517D01*
X141068122Y-81782741D01*
X141088455Y-81715710D01*
X141095321Y-81646000D01*
X141093600Y-80460300D01*
X141004700Y-80371400D01*
X138963400Y-80371400D01*
X138912600Y-80371400D01*
X136871300Y-80371400D01*
X136782400Y-80460300D01*
X136780679Y-81646000D01*
X126429488Y-81646000D01*
X126616848Y-81160892D01*
X126878400Y-80658166D01*
X127183669Y-80214459D01*
X127533170Y-79827796D01*
X127928632Y-79496061D01*
X128372880Y-79217759D01*
X128869260Y-78992519D01*
X129384384Y-78832530D01*
X136862440Y-78821234D01*
X136840898Y-78847483D01*
X136807878Y-78909259D01*
X136787545Y-78976290D01*
X136780679Y-79046000D01*
X136782400Y-80231700D01*
X136871300Y-80320600D01*
X138912600Y-80320600D01*
X138912600Y-80300600D01*
X138963400Y-80300600D01*
X138963400Y-80320600D01*
X141004700Y-80320600D01*
X141093600Y-80231700D01*
X141095321Y-79046000D01*
X141088455Y-78976290D01*
X141068122Y-78909259D01*
X141035102Y-78847483D01*
X141008420Y-78814972D01*
X148286695Y-78803977D01*
X148819535Y-79005282D01*
%TA.AperFunction,Conductor*%
D17*
G36*
X148819535Y-79005282D02*
G01*
X149369293Y-79271177D01*
X149865944Y-79590607D01*
X150300623Y-79975126D01*
X150667298Y-80439535D01*
X150959756Y-81003730D01*
X151167545Y-81690753D01*
X151275508Y-82524570D01*
X151278603Y-85322917D01*
X151150398Y-85194712D01*
X150944749Y-85057302D01*
X150716245Y-84962652D01*
X150473666Y-84914400D01*
X150226334Y-84914400D01*
X149983755Y-84962652D01*
X149755251Y-85057302D01*
X149549602Y-85194712D01*
X149374712Y-85369602D01*
X149237302Y-85575251D01*
X149142652Y-85803755D01*
X149094400Y-86046334D01*
X149094400Y-86293666D01*
X149142652Y-86536245D01*
X149237302Y-86764749D01*
X149374712Y-86970398D01*
X149549602Y-87145288D01*
X149755251Y-87282698D01*
X149983755Y-87377348D01*
X150226334Y-87425600D01*
X150473666Y-87425600D01*
X150716245Y-87377348D01*
X150944749Y-87282698D01*
X151150398Y-87145288D01*
X151280475Y-87015211D01*
X151281416Y-87865730D01*
X151150398Y-87734712D01*
X150944749Y-87597302D01*
X150716245Y-87502652D01*
X150473666Y-87454400D01*
X150226334Y-87454400D01*
X149983755Y-87502652D01*
X149755251Y-87597302D01*
X149549602Y-87734712D01*
X149374712Y-87909602D01*
X149237302Y-88115251D01*
X149142652Y-88343755D01*
X149094400Y-88586334D01*
X149094400Y-88833666D01*
X149142652Y-89076245D01*
X149237302Y-89304749D01*
X149374712Y-89510398D01*
X149549602Y-89685288D01*
X149755251Y-89822698D01*
X149983755Y-89917348D01*
X150226334Y-89965600D01*
X150473666Y-89965600D01*
X150716245Y-89917348D01*
X150944749Y-89822698D01*
X151150398Y-89685288D01*
X151283281Y-89552405D01*
X151284228Y-90408542D01*
X151150398Y-90274712D01*
X150944749Y-90137302D01*
X150716245Y-90042652D01*
X150473666Y-89994400D01*
X150226334Y-89994400D01*
X149983755Y-90042652D01*
X149755251Y-90137302D01*
X149549602Y-90274712D01*
X149374712Y-90449602D01*
X149237302Y-90655251D01*
X149142652Y-90883755D01*
X149094400Y-91126334D01*
X149094400Y-91373666D01*
X149142652Y-91616245D01*
X149237302Y-91844749D01*
X149374712Y-92050398D01*
X149549602Y-92225288D01*
X149755251Y-92362698D01*
X149983755Y-92457348D01*
X150226334Y-92505600D01*
X150473666Y-92505600D01*
X150716245Y-92457348D01*
X150944749Y-92362698D01*
X151150398Y-92225288D01*
X151286087Y-92089599D01*
X151287041Y-92951355D01*
X151150398Y-92814712D01*
X150944749Y-92677302D01*
X150716245Y-92582652D01*
X150473666Y-92534400D01*
X150226334Y-92534400D01*
X149983755Y-92582652D01*
X149755251Y-92677302D01*
X149549602Y-92814712D01*
X149374712Y-92989602D01*
X149237302Y-93195251D01*
X149142652Y-93423755D01*
X149094400Y-93666334D01*
X149094400Y-93913666D01*
X149142652Y-94156245D01*
X149237302Y-94384749D01*
X149374712Y-94590398D01*
X149549602Y-94765288D01*
X149755251Y-94902698D01*
X149983755Y-94997348D01*
X150226334Y-95045600D01*
X150473666Y-95045600D01*
X150716245Y-94997348D01*
X150944749Y-94902698D01*
X151150398Y-94765288D01*
X151288894Y-94626792D01*
X151289853Y-95494167D01*
X151150398Y-95354712D01*
X150944749Y-95217302D01*
X150716245Y-95122652D01*
X150473666Y-95074400D01*
X150226334Y-95074400D01*
X149983755Y-95122652D01*
X149755251Y-95217302D01*
X149549602Y-95354712D01*
X149374712Y-95529602D01*
X149237302Y-95735251D01*
X149142652Y-95963755D01*
X149094400Y-96206334D01*
X149094400Y-96453666D01*
X149142652Y-96696245D01*
X149237302Y-96924749D01*
X149374712Y-97130398D01*
X149549602Y-97305288D01*
X149755251Y-97442698D01*
X149983755Y-97537348D01*
X150226334Y-97585600D01*
X150473666Y-97585600D01*
X150716245Y-97537348D01*
X150944749Y-97442698D01*
X151150398Y-97305288D01*
X151291700Y-97163986D01*
X151292666Y-98036980D01*
X151150398Y-97894712D01*
X150944749Y-97757302D01*
X150716245Y-97662652D01*
X150473666Y-97614400D01*
X150226334Y-97614400D01*
X149983755Y-97662652D01*
X149755251Y-97757302D01*
X149549602Y-97894712D01*
X149374712Y-98069602D01*
X149237302Y-98275251D01*
X149142652Y-98503755D01*
X149094400Y-98746334D01*
X149094400Y-98993666D01*
X149142652Y-99236245D01*
X149237302Y-99464749D01*
X149374712Y-99670398D01*
X149549602Y-99845288D01*
X149755251Y-99982698D01*
X149983755Y-100077348D01*
X150226334Y-100125600D01*
X150473666Y-100125600D01*
X150716245Y-100077348D01*
X150944749Y-99982698D01*
X151150398Y-99845288D01*
X151294507Y-99701179D01*
X151295478Y-100579792D01*
X151150398Y-100434712D01*
X150944749Y-100297302D01*
X150716245Y-100202652D01*
X150473666Y-100154400D01*
X150226334Y-100154400D01*
X149983755Y-100202652D01*
X149755251Y-100297302D01*
X149549602Y-100434712D01*
X149374712Y-100609602D01*
X149237302Y-100815251D01*
X149142652Y-101043755D01*
X149094400Y-101286334D01*
X149094400Y-101533666D01*
X149142652Y-101776245D01*
X149237302Y-102004749D01*
X149374712Y-102210398D01*
X149549602Y-102385288D01*
X149755251Y-102522698D01*
X149983755Y-102617348D01*
X150226334Y-102665600D01*
X150473666Y-102665600D01*
X150716245Y-102617348D01*
X150944749Y-102522698D01*
X151150398Y-102385288D01*
X151297313Y-102238373D01*
X151297821Y-102697390D01*
X151250000Y-102692680D01*
X149450000Y-102692680D01*
X149380290Y-102699546D01*
X149313260Y-102719879D01*
X149251484Y-102752899D01*
X149197337Y-102797337D01*
X149152899Y-102851484D01*
X149119879Y-102913260D01*
X149099546Y-102980290D01*
X149092680Y-103050000D01*
X149092680Y-104850000D01*
X149099546Y-104919710D01*
X149119879Y-104986740D01*
X149152899Y-105048516D01*
X149197337Y-105102663D01*
X149251484Y-105147101D01*
X149313260Y-105180121D01*
X149380290Y-105200454D01*
X149450000Y-105207320D01*
X150479298Y-105207320D01*
X149611699Y-105636264D01*
X149604434Y-105638512D01*
X149575984Y-105653922D01*
X149564863Y-105659420D01*
X149558426Y-105663432D01*
X149534181Y-105676564D01*
X149524607Y-105684510D01*
X149514046Y-105691092D01*
X149493937Y-105709965D01*
X149472701Y-105727589D01*
X149464857Y-105737255D01*
X149455788Y-105745767D01*
X149439742Y-105768208D01*
X149422359Y-105789630D01*
X149416555Y-105800634D01*
X149409316Y-105810758D01*
X149397953Y-105835904D01*
X149385086Y-105860299D01*
X149381541Y-105872221D01*
X149376415Y-105883565D01*
X149370177Y-105910444D01*
X149362316Y-105936882D01*
X149361165Y-105949274D01*
X149358352Y-105961393D01*
X149357477Y-105988963D01*
X149356777Y-105996503D01*
X149356845Y-106008887D01*
X149355819Y-106041248D01*
X149357066Y-106048753D01*
X149392152Y-112394400D01*
X144308898Y-112394400D01*
X144315289Y-111605201D01*
X144317411Y-111583487D01*
X144313637Y-111545466D01*
X144310210Y-111507524D01*
X144309700Y-111505791D01*
X144309520Y-111503982D01*
X144298384Y-111467372D01*
X144287637Y-111430883D01*
X144286798Y-111429283D01*
X144286269Y-111427543D01*
X144268229Y-111393856D01*
X144250546Y-111360118D01*
X144249408Y-111358708D01*
X144248552Y-111357110D01*
X144224301Y-111327604D01*
X144200363Y-111297949D01*
X144198975Y-111296791D01*
X144197821Y-111295387D01*
X144168258Y-111271163D01*
X144139014Y-111246765D01*
X144137424Y-111245898D01*
X144136021Y-111244749D01*
X144102322Y-111226769D01*
X144068860Y-111208533D01*
X144067133Y-111207994D01*
X144065531Y-111207139D01*
X144028980Y-111196082D01*
X143992594Y-111184721D01*
X143990792Y-111184529D01*
X143989057Y-111184004D01*
X143951115Y-111180297D01*
X143913149Y-111176247D01*
X143891418Y-111178210D01*
X141005655Y-111180395D01*
X141035101Y-111144516D01*
X141068121Y-111082740D01*
X141088454Y-111015710D01*
X141095320Y-110946000D01*
X141095320Y-108346000D01*
X141088454Y-108276290D01*
X141068121Y-108209260D01*
X141035101Y-108147484D01*
X140990663Y-108093337D01*
X140936516Y-108048899D01*
X140874740Y-108015879D01*
X140807710Y-107995546D01*
X140738000Y-107988680D01*
X139418600Y-107988680D01*
X139418600Y-103189559D01*
X139447238Y-103160921D01*
X139518985Y-103053543D01*
X139568405Y-102934231D01*
X139593600Y-102807571D01*
X139593600Y-102678429D01*
X139568405Y-102551769D01*
X139518985Y-102432457D01*
X139447238Y-102325079D01*
X139355921Y-102233762D01*
X139248543Y-102162015D01*
X139129231Y-102112595D01*
X139002571Y-102087400D01*
X138873429Y-102087400D01*
X138746769Y-102112595D01*
X138627457Y-102162015D01*
X138520079Y-102233762D01*
X138428762Y-102325079D01*
X138357015Y-102432457D01*
X138307595Y-102551769D01*
X138282400Y-102678429D01*
X138282400Y-102807571D01*
X138307595Y-102934231D01*
X138357015Y-103053543D01*
X138428762Y-103160921D01*
X138457400Y-103189559D01*
X138457401Y-107988680D01*
X137138000Y-107988680D01*
X137068290Y-107995546D01*
X137001260Y-108015879D01*
X136939484Y-108048899D01*
X136885337Y-108093337D01*
X136840899Y-108147484D01*
X136807879Y-108209260D01*
X136787546Y-108276290D01*
X136780680Y-108346000D01*
X136780680Y-110946000D01*
X136787546Y-111015710D01*
X136807879Y-111082740D01*
X136840899Y-111144516D01*
X136872913Y-111183525D01*
X135098065Y-111184869D01*
X135077958Y-111182922D01*
X135038296Y-111186894D01*
X134998814Y-111190813D01*
X134998640Y-111190866D01*
X134998460Y-111190884D01*
X134960267Y-111202538D01*
X134922375Y-111214064D01*
X134922217Y-111214149D01*
X134922042Y-111214202D01*
X134886858Y-111233083D01*
X134851942Y-111251780D01*
X134851802Y-111251895D01*
X134851642Y-111251981D01*
X134821081Y-111277146D01*
X134790219Y-111302512D01*
X134790103Y-111302653D01*
X134789964Y-111302768D01*
X134765059Y-111333217D01*
X134739581Y-111364311D01*
X134739494Y-111364473D01*
X134739381Y-111364612D01*
X134721027Y-111399087D01*
X134701971Y-111434802D01*
X134701917Y-111434980D01*
X134701834Y-111435136D01*
X134690526Y-111472632D01*
X134678836Y-111511275D01*
X134678818Y-111511457D01*
X134678766Y-111511630D01*
X134674906Y-111551498D01*
X134671066Y-111590791D01*
X134673060Y-111610883D01*
X134674334Y-112385968D01*
X126405589Y-112362222D01*
X126408824Y-105156370D01*
X126453260Y-105180121D01*
X126520290Y-105200454D01*
X126590000Y-105207320D01*
X128390000Y-105207320D01*
X128459710Y-105200454D01*
X128526740Y-105180121D01*
X128588516Y-105147101D01*
X128642663Y-105102663D01*
X128687101Y-105048516D01*
X128720121Y-104986740D01*
X128740454Y-104919710D01*
X128747320Y-104850000D01*
X128747320Y-104610400D01*
X131770959Y-104610400D01*
X131803398Y-104613595D01*
X131835837Y-104610400D01*
X131932859Y-104600844D01*
X132057345Y-104563082D01*
X132172072Y-104501759D01*
X132272631Y-104419233D01*
X132293316Y-104394028D01*
X136799233Y-99888112D01*
X136824432Y-99867432D01*
X136906958Y-99766873D01*
X136968281Y-99652146D01*
X137006043Y-99527660D01*
X137015599Y-99430638D01*
X137015599Y-99430637D01*
X137018794Y-99398199D01*
X137015599Y-99365760D01*
X137015599Y-95381720D01*
X137095429Y-95397600D01*
X137224571Y-95397600D01*
X137351231Y-95372405D01*
X137470543Y-95322985D01*
X137577921Y-95251238D01*
X137669238Y-95159921D01*
X137740985Y-95052543D01*
X137790405Y-94933231D01*
X137815600Y-94806571D01*
X137815600Y-94677429D01*
X137790405Y-94550769D01*
X137740985Y-94431457D01*
X137669238Y-94324079D01*
X137640600Y-94295441D01*
X137640600Y-93410555D01*
X137669238Y-93381917D01*
X137740985Y-93274539D01*
X137790405Y-93155227D01*
X137815600Y-93028567D01*
X137815600Y-92899425D01*
X137790405Y-92772765D01*
X137740985Y-92653453D01*
X137669238Y-92546075D01*
X137577921Y-92454758D01*
X137470543Y-92383011D01*
X137351231Y-92333591D01*
X137224571Y-92308396D01*
X137095429Y-92308396D01*
X137015599Y-92324276D01*
X137015599Y-89724429D01*
X142981400Y-89724429D01*
X142981400Y-89853571D01*
X143006595Y-89980231D01*
X143056015Y-90099543D01*
X143127762Y-90206921D01*
X143156400Y-90235559D01*
X143156401Y-95226386D01*
X143154075Y-95250000D01*
X143163355Y-95344213D01*
X143190836Y-95434808D01*
X143235463Y-95518298D01*
X143235464Y-95518299D01*
X143295521Y-95591480D01*
X143313861Y-95606531D01*
X145267400Y-97560071D01*
X145267400Y-97600571D01*
X145292595Y-97727231D01*
X145342015Y-97846543D01*
X145413762Y-97953921D01*
X145505079Y-98045238D01*
X145612457Y-98116985D01*
X145731769Y-98166405D01*
X145858429Y-98191600D01*
X145987571Y-98191600D01*
X146114231Y-98166405D01*
X146233543Y-98116985D01*
X146340921Y-98045238D01*
X146432238Y-97953921D01*
X146503985Y-97846543D01*
X146553405Y-97727231D01*
X146578600Y-97600571D01*
X146578600Y-97471429D01*
X146553405Y-97344769D01*
X146503985Y-97225457D01*
X146432238Y-97118079D01*
X146340921Y-97026762D01*
X146233543Y-96955015D01*
X146114231Y-96905595D01*
X145987571Y-96880400D01*
X145947071Y-96880400D01*
X144117600Y-95050930D01*
X144117600Y-90235559D01*
X144146238Y-90206921D01*
X144217985Y-90099543D01*
X144267405Y-89980231D01*
X144272000Y-89957131D01*
X144276595Y-89980231D01*
X144326015Y-90099543D01*
X144397762Y-90206921D01*
X144426401Y-90235560D01*
X144426400Y-93173784D01*
X144362079Y-93216762D01*
X144270762Y-93308079D01*
X144199015Y-93415457D01*
X144149595Y-93534769D01*
X144124400Y-93661429D01*
X144124400Y-93790571D01*
X144149595Y-93917231D01*
X144199015Y-94036543D01*
X144270762Y-94143921D01*
X144362079Y-94235238D01*
X144469457Y-94306985D01*
X144588769Y-94356405D01*
X144715429Y-94381600D01*
X144844571Y-94381600D01*
X144971231Y-94356405D01*
X145090543Y-94306985D01*
X145197921Y-94235238D01*
X145289238Y-94143921D01*
X145360985Y-94036543D01*
X145410405Y-93917231D01*
X145435600Y-93790571D01*
X145435600Y-93661429D01*
X145410405Y-93534769D01*
X145387600Y-93479712D01*
X145387600Y-90235559D01*
X145416238Y-90206921D01*
X145487985Y-90099543D01*
X145537405Y-89980231D01*
X145562600Y-89853571D01*
X145562600Y-89724429D01*
X145537405Y-89597769D01*
X145487985Y-89478457D01*
X145416238Y-89371079D01*
X145324921Y-89279762D01*
X145217543Y-89208015D01*
X145098231Y-89158595D01*
X144971571Y-89133400D01*
X144842429Y-89133400D01*
X144715769Y-89158595D01*
X144596457Y-89208015D01*
X144489079Y-89279762D01*
X144397762Y-89371079D01*
X144326015Y-89478457D01*
X144276595Y-89597769D01*
X144272000Y-89620869D01*
X144267405Y-89597769D01*
X144217985Y-89478457D01*
X144146238Y-89371079D01*
X144054921Y-89279762D01*
X143947543Y-89208015D01*
X143828231Y-89158595D01*
X143701571Y-89133400D01*
X143572429Y-89133400D01*
X143445769Y-89158595D01*
X143326457Y-89208015D01*
X143219079Y-89279762D01*
X143127762Y-89371079D01*
X143056015Y-89478457D01*
X143006595Y-89597769D01*
X142981400Y-89724429D01*
X137015599Y-89724429D01*
X137015599Y-85333638D01*
X137018794Y-85301199D01*
X137006043Y-85171738D01*
X136968281Y-85047252D01*
X136906958Y-84932525D01*
X136845110Y-84857163D01*
X136824432Y-84831966D01*
X136799232Y-84811285D01*
X135191035Y-83203089D01*
X135115673Y-83141242D01*
X135000946Y-83079918D01*
X134876460Y-83042156D01*
X134747000Y-83029405D01*
X134617540Y-83042156D01*
X134493054Y-83079918D01*
X134378327Y-83141242D01*
X134277768Y-83223768D01*
X134195242Y-83324327D01*
X134133918Y-83439054D01*
X134096156Y-83563540D01*
X134083405Y-83693000D01*
X134096156Y-83822460D01*
X134133918Y-83946946D01*
X134195242Y-84061673D01*
X134257089Y-84137035D01*
X135694800Y-85574747D01*
X135694800Y-91622527D01*
X135692543Y-91621019D01*
X135573231Y-91571599D01*
X135446571Y-91546404D01*
X135317429Y-91546404D01*
X135190769Y-91571599D01*
X135071457Y-91621019D01*
X134964079Y-91692766D01*
X134872762Y-91784083D01*
X134801015Y-91891461D01*
X134751595Y-92010773D01*
X134726400Y-92137433D01*
X134726400Y-92266575D01*
X134751595Y-92393235D01*
X134801015Y-92512547D01*
X134872762Y-92619925D01*
X134901401Y-92648564D01*
X134901400Y-96320929D01*
X132832930Y-98389400D01*
X128649980Y-98389400D01*
X128602698Y-98275251D01*
X128465288Y-98069602D01*
X128290398Y-97894712D01*
X128084749Y-97757302D01*
X127856245Y-97662652D01*
X127613666Y-97614400D01*
X127366334Y-97614400D01*
X127123755Y-97662652D01*
X126895251Y-97757302D01*
X126689602Y-97894712D01*
X126514712Y-98069602D01*
X126411938Y-98223415D01*
X126412497Y-96977423D01*
X126514712Y-97130398D01*
X126689602Y-97305288D01*
X126895251Y-97442698D01*
X127123755Y-97537348D01*
X127366334Y-97585600D01*
X127613666Y-97585600D01*
X127856245Y-97537348D01*
X128084749Y-97442698D01*
X128290398Y-97305288D01*
X128465288Y-97130398D01*
X128602698Y-96924749D01*
X128697348Y-96696245D01*
X128745600Y-96453666D01*
X128745600Y-96206334D01*
X128697348Y-95963755D01*
X128602698Y-95735251D01*
X128465288Y-95529602D01*
X128290398Y-95354712D01*
X128084749Y-95217302D01*
X127856245Y-95122652D01*
X127613666Y-95074400D01*
X127366334Y-95074400D01*
X127123755Y-95122652D01*
X126895251Y-95217302D01*
X126689602Y-95354712D01*
X126514712Y-95529602D01*
X126413079Y-95681707D01*
X126413637Y-94439128D01*
X126514712Y-94590398D01*
X126689602Y-94765288D01*
X126895251Y-94902698D01*
X127123755Y-94997348D01*
X127366334Y-95045600D01*
X127613666Y-95045600D01*
X127856245Y-94997348D01*
X128084749Y-94902698D01*
X128290398Y-94765288D01*
X128465288Y-94590398D01*
X128602698Y-94384749D01*
X128697348Y-94156245D01*
X128745600Y-93913666D01*
X128745600Y-93666334D01*
X128697348Y-93423755D01*
X128602698Y-93195251D01*
X128465288Y-92989602D01*
X128290398Y-92814712D01*
X128084749Y-92677302D01*
X127856245Y-92582652D01*
X127613666Y-92534400D01*
X127366334Y-92534400D01*
X127123755Y-92582652D01*
X126895251Y-92677302D01*
X126689602Y-92814712D01*
X126514712Y-92989602D01*
X126414220Y-93139998D01*
X126414777Y-91900834D01*
X126514712Y-92050398D01*
X126689602Y-92225288D01*
X126895251Y-92362698D01*
X127123755Y-92457348D01*
X127366334Y-92505600D01*
X127613666Y-92505600D01*
X127856245Y-92457348D01*
X128084749Y-92362698D01*
X128290398Y-92225288D01*
X128465288Y-92050398D01*
X128602698Y-91844749D01*
X128697348Y-91616245D01*
X128745600Y-91373666D01*
X128745600Y-91126334D01*
X128697348Y-90883755D01*
X128602698Y-90655251D01*
X128465288Y-90449602D01*
X128290398Y-90274712D01*
X128084749Y-90137302D01*
X127856245Y-90042652D01*
X127613666Y-89994400D01*
X127366334Y-89994400D01*
X127123755Y-90042652D01*
X126895251Y-90137302D01*
X126689602Y-90274712D01*
X126514712Y-90449602D01*
X126415362Y-90598290D01*
X126415917Y-89362540D01*
X126514712Y-89510398D01*
X126689602Y-89685288D01*
X126895251Y-89822698D01*
X127123755Y-89917348D01*
X127366334Y-89965600D01*
X127613666Y-89965600D01*
X127856245Y-89917348D01*
X128084749Y-89822698D01*
X128290398Y-89685288D01*
X128465288Y-89510398D01*
X128602698Y-89304749D01*
X128697348Y-89076245D01*
X128745600Y-88833666D01*
X128745600Y-88586334D01*
X128697348Y-88343755D01*
X128602698Y-88115251D01*
X128465288Y-87909602D01*
X128290398Y-87734712D01*
X128084749Y-87597302D01*
X127856245Y-87502652D01*
X127613666Y-87454400D01*
X127366334Y-87454400D01*
X127123755Y-87502652D01*
X126895251Y-87597302D01*
X126689602Y-87734712D01*
X126514712Y-87909602D01*
X126416503Y-88056582D01*
X126417057Y-86824246D01*
X126514712Y-86970398D01*
X126689602Y-87145288D01*
X126895251Y-87282698D01*
X127123755Y-87377348D01*
X127366334Y-87425600D01*
X127613666Y-87425600D01*
X127856245Y-87377348D01*
X128084749Y-87282698D01*
X128290398Y-87145288D01*
X128465288Y-86970398D01*
X128602698Y-86764749D01*
X128697348Y-86536245D01*
X128745600Y-86293666D01*
X128745600Y-86046334D01*
X128697348Y-85803755D01*
X128602698Y-85575251D01*
X128465288Y-85369602D01*
X128290398Y-85194712D01*
X128084749Y-85057302D01*
X127856245Y-84962652D01*
X127613666Y-84914400D01*
X127366334Y-84914400D01*
X127123755Y-84962652D01*
X126895251Y-85057302D01*
X126689602Y-85194712D01*
X126514712Y-85369602D01*
X126417645Y-85514874D01*
X126419370Y-81672198D01*
X126429488Y-81646000D01*
X136780679Y-81646000D01*
X136787545Y-81715710D01*
X136807878Y-81782741D01*
X136840898Y-81844517D01*
X136885336Y-81898664D01*
X136939483Y-81943102D01*
X137001259Y-81976122D01*
X137068290Y-81996455D01*
X137138000Y-82003321D01*
X138823700Y-82001600D01*
X138912600Y-81912700D01*
X138912600Y-80371400D01*
X138963400Y-80371400D01*
X138963400Y-81912700D01*
X139052300Y-82001600D01*
X140738000Y-82003321D01*
X140807710Y-81996455D01*
X140874741Y-81976122D01*
X140936517Y-81943102D01*
X140990664Y-81898664D01*
X141035102Y-81844517D01*
X141068122Y-81782741D01*
X141088455Y-81715710D01*
X141095321Y-81646000D01*
X141093600Y-80460300D01*
X141004700Y-80371400D01*
X138963400Y-80371400D01*
X138912600Y-80371400D01*
X136871300Y-80371400D01*
X136782400Y-80460300D01*
X136780679Y-81646000D01*
X126429488Y-81646000D01*
X126616848Y-81160892D01*
X126878400Y-80658166D01*
X127183669Y-80214459D01*
X127533170Y-79827796D01*
X127928632Y-79496061D01*
X128372880Y-79217759D01*
X128869260Y-78992519D01*
X129384384Y-78832530D01*
X136862440Y-78821234D01*
X136840898Y-78847483D01*
X136807878Y-78909259D01*
X136787545Y-78976290D01*
X136780679Y-79046000D01*
X136782400Y-80231700D01*
X136871300Y-80320600D01*
X138912600Y-80320600D01*
X138912600Y-80300600D01*
X138963400Y-80300600D01*
X138963400Y-80320600D01*
X141004700Y-80320600D01*
X141093600Y-80231700D01*
X141095321Y-79046000D01*
X141088455Y-78976290D01*
X141068122Y-78909259D01*
X141035102Y-78847483D01*
X141008420Y-78814972D01*
X148286695Y-78803977D01*
X148819535Y-79005282D01*
G37*
%TD.AperFunction*%
D16*
X135694799Y-99124652D02*
X131529852Y-103289600D01*
X128747320Y-103289600D01*
X128747320Y-103050000D01*
X128740454Y-102980290D01*
X128720121Y-102913260D01*
X128687101Y-102851484D01*
X128642663Y-102797337D01*
X128588516Y-102752899D01*
X128526740Y-102719879D01*
X128459710Y-102699546D01*
X128390000Y-102692680D01*
X126590000Y-102692680D01*
X126520290Y-102699546D01*
X126453260Y-102719879D01*
X126409908Y-102743051D01*
X126410224Y-102039256D01*
X126459476Y-102127324D01*
X126619220Y-102314586D01*
X126812428Y-102467085D01*
X127031674Y-102578961D01*
X127268534Y-102645915D01*
X127464600Y-102576444D01*
X127464600Y-101435400D01*
X127515400Y-101435400D01*
X127515400Y-102576444D01*
X127711466Y-102645915D01*
X127948326Y-102578961D01*
X128167572Y-102467085D01*
X128360780Y-102314586D01*
X128520524Y-102127324D01*
X128640666Y-101912496D01*
X128716588Y-101678357D01*
X128725914Y-101631466D01*
X128656423Y-101435400D01*
X127515400Y-101435400D01*
X127464600Y-101435400D01*
X127444600Y-101435400D01*
X127444600Y-101384600D01*
X127464600Y-101384600D01*
X127464600Y-100243556D01*
X127515400Y-100243556D01*
X127515400Y-101384600D01*
X128656423Y-101384600D01*
X128725914Y-101188534D01*
X128716588Y-101141643D01*
X128640666Y-100907504D01*
X128520524Y-100692676D01*
X128360780Y-100505414D01*
X128167572Y-100352915D01*
X127948326Y-100241039D01*
X127711466Y-100174085D01*
X127515400Y-100243556D01*
X127464600Y-100243556D01*
X127268534Y-100174085D01*
X127031674Y-100241039D01*
X126812428Y-100352915D01*
X126619220Y-100505414D01*
X126459476Y-100692676D01*
X126410790Y-100779733D01*
X126411357Y-99515717D01*
X126514712Y-99670398D01*
X126689602Y-99845288D01*
X126895251Y-99982698D01*
X127123755Y-100077348D01*
X127366334Y-100125600D01*
X127613666Y-100125600D01*
X127856245Y-100077348D01*
X128084749Y-99982698D01*
X128290398Y-99845288D01*
X128465288Y-99670398D01*
X128602698Y-99464749D01*
X128649980Y-99350600D01*
X133008396Y-99350600D01*
X133032000Y-99352925D01*
X133055604Y-99350600D01*
X133055607Y-99350600D01*
X133126214Y-99343646D01*
X133216807Y-99316165D01*
X133300299Y-99271537D01*
X133373480Y-99211480D01*
X133388535Y-99193135D01*
X135694799Y-96886872D01*
X135694799Y-99124652D01*
%TA.AperFunction,Conductor*%
D17*
G36*
X135694799Y-99124652D02*
G01*
X131529852Y-103289600D01*
X128747320Y-103289600D01*
X128747320Y-103050000D01*
X128740454Y-102980290D01*
X128720121Y-102913260D01*
X128687101Y-102851484D01*
X128642663Y-102797337D01*
X128588516Y-102752899D01*
X128526740Y-102719879D01*
X128459710Y-102699546D01*
X128390000Y-102692680D01*
X126590000Y-102692680D01*
X126520290Y-102699546D01*
X126453260Y-102719879D01*
X126409908Y-102743051D01*
X126410224Y-102039256D01*
X126459476Y-102127324D01*
X126619220Y-102314586D01*
X126812428Y-102467085D01*
X127031674Y-102578961D01*
X127268534Y-102645915D01*
X127464600Y-102576444D01*
X127464600Y-101435400D01*
X127515400Y-101435400D01*
X127515400Y-102576444D01*
X127711466Y-102645915D01*
X127948326Y-102578961D01*
X128167572Y-102467085D01*
X128360780Y-102314586D01*
X128520524Y-102127324D01*
X128640666Y-101912496D01*
X128716588Y-101678357D01*
X128725914Y-101631466D01*
X128656423Y-101435400D01*
X127515400Y-101435400D01*
X127464600Y-101435400D01*
X127444600Y-101435400D01*
X127444600Y-101384600D01*
X127464600Y-101384600D01*
X127464600Y-100243556D01*
X127515400Y-100243556D01*
X127515400Y-101384600D01*
X128656423Y-101384600D01*
X128725914Y-101188534D01*
X128716588Y-101141643D01*
X128640666Y-100907504D01*
X128520524Y-100692676D01*
X128360780Y-100505414D01*
X128167572Y-100352915D01*
X127948326Y-100241039D01*
X127711466Y-100174085D01*
X127515400Y-100243556D01*
X127464600Y-100243556D01*
X127268534Y-100174085D01*
X127031674Y-100241039D01*
X126812428Y-100352915D01*
X126619220Y-100505414D01*
X126459476Y-100692676D01*
X126410790Y-100779733D01*
X126411357Y-99515717D01*
X126514712Y-99670398D01*
X126689602Y-99845288D01*
X126895251Y-99982698D01*
X127123755Y-100077348D01*
X127366334Y-100125600D01*
X127613666Y-100125600D01*
X127856245Y-100077348D01*
X128084749Y-99982698D01*
X128290398Y-99845288D01*
X128465288Y-99670398D01*
X128602698Y-99464749D01*
X128649980Y-99350600D01*
X133008396Y-99350600D01*
X133032000Y-99352925D01*
X133055604Y-99350600D01*
X133055607Y-99350600D01*
X133126214Y-99343646D01*
X133216807Y-99316165D01*
X133300299Y-99271537D01*
X133373480Y-99211480D01*
X133388535Y-99193135D01*
X135694799Y-96886872D01*
X135694799Y-99124652D01*
G37*
%TD.AperFunction*%
%TD*%
M02*
